<?xml version="1.0" encoding="utf-8"?>
<!-- Generator: Adobe Illustrator 25.2.3, SVG Export Plug-In . SVG Version: 6.00 Build 0)  -->
<svg version="1.1" id="Layer_1" xmlns="http://www.w3.org/2000/svg" xmlns:xlink="http://www.w3.org/1999/xlink" x="0px" y="0px"
	 viewBox="0 0 841.89 595.28" style="enable-background:new 0 0 841.89 595.28;" xml:space="preserve">
<style type="text/css">
	.st0{fill:#C050C0;}
</style>
<g>
	<path class="st0" d="M229.26,302.89c0-52.65,0-105.3,0-157.94c0.26-0.8,0.6-1.59,0.77-2.41c4.31-21.18,22.4-36.46,43.78-36.48
		c98.07-0.07,196.15-0.08,294.22,0c24.55,0.02,44.47,20.05,44.53,44.64c0.11,48.9,0.1,97.81,0,146.71
		c-0.04,21.46-15.3,40.07-36.43,43.6c-8.4,1.4-17.15,0.94-25.74,0.89c-3.77-0.02-6.45,0.98-9.15,3.72
		c-16.28,16.54-32.81,32.83-49.14,49.31c-5.11,5.16-10.75,7.61-17.85,4.87c-6.45-2.49-9.32-7.58-9.33-16.27
		c-0.01-12.48,0-24.95-0.01-37.43c0-1.31-0.14-2.61-0.22-4.11c-8.96,0-17.44,0.13-25.91-0.07c-2.97-0.07-4.33,0.65-5.09,3.75
		c-2.77,11.35-8.28,21.33-16.1,29.99c-2.13,2.35-4.67,4.33-7.04,6.51c0.81,0.74,0.98,0.93,1.18,1.06c0.42,0.27,0.86,0.51,1.28,0.76
		c32.04,19.22,49.67,47.4,52.62,84.67c0.93,11.74-1.65,16.08-11.75,20.61c-61.39,0-122.79,0-184.18,0
		c-9.03-3.63-11.97-10.4-11.34-19.87c1.95-29.48,13.76-54.05,35.96-73.45c5.85-5.11,12.55-9.25,18.94-13.9
		c-0.01-0.01-0.13-0.38-0.39-0.62c-11.1-10.25-18.53-22.67-22.33-37.31c-0.24-0.92-2.03-1.98-3.14-2.03
		c-4.98-0.24-9.98-0.01-14.96-0.17c-19.28-0.6-36.38-14.07-41.49-32.6C230.36,307.19,229.82,305.04,229.26,302.89z M494.85,349.59
		c1.62-1.52,2.53-2.34,3.39-3.19c9.53-9.52,19.14-18.97,28.55-28.61c3.93-4.03,8.47-5.85,14.04-5.76
		c8.11,0.13,16.22,0.04,24.33,0.03c11.79-0.01,17.48-5.66,17.48-17.35c0-47.03,0-94.05,0-141.08c0-11.98-5.66-17.66-17.59-17.66
		c-75.23,0-150.46,0-225.69,0c-21.58,0-43.17-0.04-64.75,0.02c-8.8,0.02-15.35,6.31-15.36,14.96c-0.06,48.77-0.07,97.55,0.01,146.32
		c0.01,8.36,6.33,14.5,14.75,14.75c4.11,0.12,8.24-0.11,12.35,0.09c2.67,0.13,3.79-0.62,4.5-3.44
		c8.41-33.33,38.59-56.38,72.87-55.87c33.12,0.5,61.7,23.13,70.25,55.84c0.72,2.77,1.8,3.49,4.49,3.47
		c13.1-0.13,26.2-0.07,39.3-0.05c11.1,0.02,17.06,6.01,17.09,17.15C494.87,335.69,494.85,342.16,494.85,349.59z M290.04,459.17
		c48.13,0,95.99,0,143.88,0c-4.09-25.6-29.25-58.14-71.28-58.57C322.26,400.19,295.08,430.76,290.04,459.17z M362.39,370.56
		c24.08,0.05,43.76-19.5,43.95-43.66c0.19-24.1-19.72-44.14-43.89-44.16c-24-0.02-43.86,19.72-44,43.72
		C318.33,350.61,338.15,370.51,362.39,370.56z"/>
	<path class="st0" d="M421.31,164.97c38.68,0,77.35-0.01,116.03,0.01c9.51,0.01,16.02,5.83,16.25,14.36
		c0.21,7.77-4.85,13.96-12.57,15.24c-1.71,0.28-3.47,0.32-5.21,0.32c-76.6,0.01-153.21,0.02-229.81-0.03c-2.59,0-5.3-0.17-7.74-0.93
		c-6.91-2.15-10.89-9.06-9.86-16.5c0.93-6.73,6.84-12.27,13.9-12.37c14.1-0.2,28.19-0.1,42.29-0.1
		C370.16,164.96,395.74,164.97,421.31,164.97z"/>
	<path class="st0" d="M479.7,253.67c-19.45,0-38.91,0.09-58.36-0.04c-11.14-0.07-18.28-10.38-14.34-20.36
		c2.41-6.11,7.87-9.52,15.49-9.53c22.7-0.03,45.39-0.01,68.09-0.01c15.71,0,31.43-0.06,47.14,0.02c9.15,0.05,15.63,6.06,15.87,14.45
		c0.25,8.89-6.17,15.4-15.52,15.44C518.61,253.72,499.16,253.67,479.7,253.67z"/>
</g>
</svg>
