<?xml version="1.0" encoding="utf-8"?>
<!-- Generator: Adobe Illustrator 25.2.3, SVG Export Plug-In . SVG Version: 6.00 Build 0)  -->
<svg version="1.1" id="Layer_1" xmlns="http://www.w3.org/2000/svg" xmlns:xlink="http://www.w3.org/1999/xlink" x="0px" y="0px"
	 viewBox="0 0 841.89 595.28" style="enable-background:new 0 0 841.89 595.28;" xml:space="preserve">
<style type="text/css">
	.st0{fill:#00337C;}
	.st1{fill:#FFFFFF;}
</style>
<g>
	<path class="st0" d="M249.32,297.6c0.01-94.82,76.66-171.52,171.53-171.65c94.84-0.14,171.85,76.94,171.71,171.85
		c-0.13,94.81-77.02,171.6-171.72,171.48C326.03,469.16,249.31,392.37,249.32,297.6z M420.98,149.9
		c-81.5-0.05-147.43,65.77-147.7,147.47c-0.27,81.53,65.94,147.88,147.62,147.93c81.51,0.05,147.44-65.78,147.7-147.48
		C568.87,216.26,502.68,149.95,420.98,149.9z"/>
	<path class="st0" d="M407.56,323.84c-6.31,0-12.27,0-18.24,0c-7.36,0-14.72-0.01-22.08,0.01c-2.76,0.01-5.66,0.32-7.3-2.59
		c-1.6-2.84-0.12-5.24,1.29-7.66c16.28-27.87,32.53-55.76,48.79-83.64c7.47-12.81,14.94-25.62,22.41-38.43
		c0.5-0.86,1.02-1.71,1.51-2.58c1.48-2.65,3.77-3.74,6.6-2.77c2.89,0.99,3.81,3.37,3.44,6.3c-3.08,24.49-6.17,48.98-9.24,73.46
		c-0.2,1.6-0.32,3.21-0.53,5.43c1.53,0,2.83,0,4.13,0c12.47,0,24.95-0.02,37.42,0.01c6.38,0.01,8.61,3.76,5.42,9.24
		c-24.27,41.67-48.59,83.32-72.85,125.01c-1.64,2.82-3.77,4.53-7,3.4c-3.47-1.22-3.72-4.12-3.3-7.4
		c3.17-24.73,6.25-49.47,9.35-74.21C407.51,326.43,407.48,325.43,407.56,323.84z"/>
</g>
</svg>
