<?xml version="1.0" encoding="utf-8"?>
<!-- Generator: Adobe Illustrator 25.2.3, SVG Export Plug-In . SVG Version: 6.00 Build 0)  -->
<svg version="1.1" id="Layer_1" xmlns="http://www.w3.org/2000/svg" xmlns:xlink="http://www.w3.org/1999/xlink" x="0px" y="0px"
	 viewBox="0 0 841.89 595.28" style="enable-background:new 0 0 841.89 595.28;" xml:space="preserve">
<style type="text/css">
	.st0{fill:#FFFFFF;}
	.st1{fill:#E80368;}
</style>
<g>
	<path class="st0" d="M216.47,269.73c3.4-7.51,9.36-9.7,17.33-9.64c34.55,0.26,69.11,0.1,103.67,0.12c7.29,0,12.07,3.12,13.98,8.96
		c2.53,7.74-2.58,15.73-10.69,16.62c-1.58,0.17-3.18,0.18-4.78,0.18c-34.42,0.01-68.85-0.13-103.27,0.11
		c-7.88,0.06-13.31-2.59-16.25-9.96C216.47,273.99,216.47,271.86,216.47,269.73z"/>
	<path class="st0" d="M493.49,182.59c13.9,0,27.18,0,40.47,0c4.12,0,8.26,0.14,12.37-0.03c6.94-0.3,11.51,2.81,14.57,8.97
		c10.22,20.59,21.03,40.9,30.8,61.69c6.79,14.44,16.92,26.36,26.67,38.59c4.93,6.18,7.15,12.49,7.03,20.43
		c-0.37,24.88-0.13,49.76-0.14,74.64c-0.01,10.17-4.96,15.11-15.25,15.15c-10.38,0.04-20.76,0.1-31.13-0.05
		c-2.78-0.04-4.1,0.69-5.1,3.51c-7.47,21.12-26.75,34.71-48.69,34.62c-22.11-0.1-40.95-13.55-48.51-34.86
		c-0.94-2.64-2.23-3.28-4.86-3.27c-23.02,0.1-46.04,0.11-69.06-0.01c-2.89-0.02-4.05,0.93-5,3.62
		c-7.41,20.95-26.35,34.37-48.35,34.51c-21.91,0.14-41.24-13.47-48.74-34.57c-0.98-2.76-2.21-3.62-5.05-3.56
		c-9.44,0.17-18.89,0.15-28.34,0.03c-8.08-0.1-13.59-4.83-14.07-11.77c-0.56-8.15,4.92-13.89,13.75-14.06
		c8.91-0.17,17.83-0.04,26.74-0.04c1.72,0,3.44,0,5.45,0c2.39-8.07,6.01-15.36,11.57-21.61c26.02-29.26,73.94-19.99,86.92,16.99
		c1.3,3.72,2.89,4.74,6.64,4.71c22.22-0.18,44.44-0.15,66.66-0.02c3.08,0.02,4.57-0.67,5.64-3.85c7.16-21.26,26.6-35.19,48.68-35.23
		c22.14-0.04,41.79,14.13,48.88,35.53c0.94,2.82,2.19,3.62,5,3.54c6.63-0.19,13.28-0.06,20.5-0.06c0-1.59,0-2.87,0-4.14
		c0-19.56,0.06-39.12-0.09-58.68c-0.02-2.06-0.85-4.43-2.07-6.1c-4.54-6.23-9.51-12.15-14.07-18.37c-1.76-2.39-3.6-3.28-6.6-3.27
		c-31,0.12-62,0.08-93.01,0.07c-11.38,0-15.98-4.58-15.99-15.94c-0.01-27.28,0-54.55,0-81.83c0-1.57,0-3.14,0-5.28
		c-2.03,0-3.7,0-5.37,0c-64.4,0-128.8,0.01-193.19-0.03c-2.37,0-4.83-0.11-7.1-0.73c-5.86-1.58-9.4-7.11-8.93-13.44
		c0.44-5.88,5.01-10.65,10.98-11.36c1.71-0.2,3.45-0.23,5.18-0.23c69.19-0.01,138.38-0.01,207.57-0.01c12.2,0,16.62,4.4,16.62,16.54
		C493.49,176.25,493.49,179.15,493.49,182.59z M566.27,259.65c-8.51-16.93-16.68-33.32-25.05-49.61c-0.51-0.99-2.53-1.68-3.85-1.69
		c-13.57-0.12-27.14-0.08-40.7-0.06c-1.01,0-2.02,0.19-2.96,0.28c0,17.17,0,34.01,0,51.08C517.8,259.65,541.68,259.65,566.27,259.65
		z M525.1,363.01c-14.12,0.06-25.62,11.58-25.61,25.66c0.01,14.05,11.57,25.61,25.65,25.65c14.22,0.04,26-11.77,25.83-25.89
		C550.81,374.34,539.22,362.95,525.1,363.01z M374.81,389.16c0.37-14.07-10.88-25.8-25.05-26.12
		c-14.19-0.32-25.92,10.81-26.29,24.92c-0.36,14.11,10.82,25.95,24.88,26.34C362.73,414.7,374.43,403.58,374.81,389.16z"/>
	<path class="st0" d="M305.09,209.67c18.09,0,36.18-0.05,54.28,0.03c7.79,0.03,13.18,4.74,13.68,11.62
		c0.55,7.64-4.76,13.73-12.54,13.99c-6.25,0.21-12.5,0.07-18.76,0.07c-29.93,0-59.86,0.01-89.8-0.01
		c-7.42-0.01-12.6-3.75-14.01-9.96c-1.86-8.22,3.79-15.53,12.47-15.67c11.97-0.19,23.94-0.07,35.92-0.07
		C292.58,209.66,298.84,209.67,305.09,209.67z"/>
	<path class="st0" d="M279.95,311.07c10.11,0,20.23-0.27,30.33,0.08c8.85,0.3,14.43,8.83,11.44,16.98
		c-1.99,5.42-6.17,8.48-11.86,8.52c-19.82,0.17-39.65,0.19-59.47,0.01c-7.45-0.07-13-6.06-12.86-13.06
		c0.14-7,5.43-12.37,12.89-12.53c9.84-0.21,19.69-0.05,29.54-0.05C279.95,311.03,279.95,311.05,279.95,311.07z"/>
</g>
</svg>
