<?xml version="1.0" encoding="utf-8"?>
<!-- Generator: Adobe Illustrator 25.2.3, SVG Export Plug-In . SVG Version: 6.00 Build 0)  -->
<svg version="1.1" id="Layer_1" xmlns="http://www.w3.org/2000/svg" xmlns:xlink="http://www.w3.org/1999/xlink" x="0px" y="0px"
	 viewBox="0 0 841.89 595.28" style="enable-background:new 0 0 841.89 595.28;" xml:space="preserve">
<style type="text/css">
	.st0{fill:#FFFFFF;}
	.st1{fill:#B28325;}
</style>
<g>
	<path class="st0" d="M361.1,138.07c2.08,0.94,3.88,1.49,5.39,2.48c5.42,3.56,10.79,7.2,16.06,10.97c2.17,1.55,4.02,1.38,6.56,0.72
		c6.62-1.73,9.46-5.76,9.93-12.42c0.33-4.69,1.59-9.33,2.5-13.98c0.92-4.75,3.41-6.92,8.26-6.97c7.36-0.09,14.72-0.08,22.08-0.01
		c5.08,0.05,7.52,2.17,8.48,7.15c1.25,6.49,2.29,13.02,3.84,19.44c0.41,1.72,2.09,3.42,3.63,4.52c5.84,4.18,11.09,2.8,16.31-1.69
		c3.57-3.07,7.75-5.44,11.71-8.04c3.76-2.46,6.93-2.22,10.12,0.9c5.44,5.33,10.81,10.73,16.12,16.18c3.32,3.41,3.55,6.36,0.86,10.4
		c-3.59,5.4-7.2,10.79-10.98,16.06c-1.64,2.28-1.46,4.24-0.8,6.91c1.67,6.8,5.92,9.3,12.5,9.75c4.44,0.3,8.83,1.53,13.22,2.43
		c5.64,1.16,7.4,3.3,7.42,8.95c0.03,6.99,0.02,13.98,0,20.97c-0.02,5.9-1.76,8.03-7.6,9.18c-5.87,1.15-11.74,2.33-17.65,3.25
		c-3.14,0.49-4.73,2.02-6.28,4.88c-3.06,5.65-2.23,10.1,1.79,14.83c3.14,3.68,5.6,7.94,8.28,12c2.78,4.2,2.56,7.2-0.89,10.73
		c-5.23,5.35-10.53,10.65-15.88,15.88c-3.35,3.27-6.54,3.54-10.43,0.95c-5.61-3.73-11.2-7.49-16.7-11.37
		c-1.96-1.39-3.62-1.22-5.87-0.62c-6.6,1.75-9.9,5.58-10.27,12.54c-0.24,4.57-1.58,9.07-2.44,13.6c-0.96,5.06-3.35,7.24-8.37,7.3
		c-7.36,0.09-14.72,0.08-22.08,0c-5.05-0.06-7.48-2.22-8.44-7.22c-1.25-6.49-2.28-13.02-3.84-19.44c-0.41-1.7-2.14-3.4-3.7-4.46
		c-5.66-3.83-10.84-3.11-16,1.54c-3.49,3.14-7.72,5.48-11.67,8.09c-3.97,2.61-7.12,2.38-10.43-0.86
		c-5.45-5.32-10.84-10.69-16.17-16.13c-3.17-3.23-3.45-6.33-0.94-10.12c3.71-5.62,7.49-11.2,11.39-16.69
		c1.47-2.07,1.27-3.84,0.67-6.23c-1.72-6.75-5.81-9.68-12.65-10.11c-4.69-0.3-9.32-1.61-13.95-2.59c-4.74-1.01-6.63-3.28-6.66-8.02
		c-0.06-7.61-0.06-15.23,0.01-22.84c0.04-4.32,1.97-6.77,6.19-7.65c6.46-1.35,12.95-2.57,19.46-3.66c2.86-0.48,4.29-1.92,5.74-4.49
		c3.29-5.85,2.44-10.55-1.83-15.48c-3.08-3.56-5.45-7.75-8.07-11.69c-2.81-4.23-2.6-7.17,0.86-10.7
		c5.24-5.35,10.5-10.68,15.91-15.86C357.24,139.95,359.26,139.18,361.1,138.07z M420.95,179.64c-23.44-0.02-42.64,19.1-42.73,42.57
		c-0.09,23.64,19.15,43.02,42.69,43.04c23.39,0.01,42.67-19.23,42.73-42.63C463.71,198.92,444.58,179.67,420.95,179.64z"/>
	<path class="st0" d="M421.06,427.63c55.64,0,111.28,0,166.91,0c1.62,0,3.25-0.03,4.86,0.12c7.1,0.66,11.53,7.08,9.57,13.92
		c-1.55,5.39-3.14,10.77-4.85,16.1c-3.33,10.37-14.45,18.14-26.53,18.65c-0.62,0.03-1.25,0.02-1.87,0.02c-98.8,0-197.6,0-296.4,0.01
		c-8.34,0-15.98-2.21-21.64-8.43c-3.09-3.39-5.42-7.7-7.25-11.95c-1.96-4.54-2.96-9.5-4.35-14.29c-1.98-6.84,2.36-13.33,9.42-14.03
		c1.61-0.16,3.24-0.13,4.86-0.13C309.54,427.63,365.3,427.63,421.06,427.63z M420.96,458.81c0,0.01,0,0.02,0,0.03
		c9.34,0,18.67,0.05,28.01-0.02c4.99-0.04,7.98-2.77,7.9-6.97c-0.08-4.04-3.06-6.67-7.81-6.68c-18.8-0.03-37.6-0.01-56.4-0.01
		c-0.25,0-0.5,0-0.75,0.01c-4.13,0.23-6.93,2.96-6.95,6.78c-0.02,3.84,2.69,6.76,6.86,6.82
		C401.54,458.9,411.25,458.81,420.96,458.81z"/>
	<path class="st0" d="M528.78,236.1c0-8.64,0-16.73,0-25.13c0.96-0.11,1.9-0.31,2.84-0.31c6.24-0.03,12.48-0.08,18.71,0
		c13.86,0.18,24.32,10.46,24.69,24.34c0.16,5.86,0.04,11.73,0.04,17.6c0,55.29,0,110.58,0,165.88c0,1.48,0,2.96,0,4.7
		c-102.75,0-205.23,0-308.25,0c0-1.31,0-2.63,0-3.95c0-60.66,0.14-121.32-0.1-181.98c-0.06-15.92,11.9-27.56,26.71-26.67
		c6.43,0.39,12.91,0.07,19.57,0.07c0,8.55,0,16.73,0,25.46c-2.46,0-4.9,0-7.35,0c-10.42,0-13.4,2.95-13.4,13.25
		c0,38.32,0,76.63,0,114.95c0,10.61-0.02,21.22,0.01,31.83c0.02,7.71,3.78,11.5,11.51,11.5c78.1,0.02,156.2,0.02,234.3,0
		c7.76,0,11.52-3.75,11.52-11.48c0.02-49.55,0.02-99.1,0-148.65c0-7.83-3.61-11.35-11.49-11.4
		C535.12,236.09,532.15,236.1,528.78,236.1z"/>
	<path class="st0" d="M421.31,341.89c33.93,0,67.87,0,101.8,0c1,0,2.1-0.25,2.97,0.08c0.99,0.38,1.79,1.28,2.66,1.96
		c-0.82,0.74-1.53,1.74-2.5,2.16c-0.84,0.37-1.96,0.1-2.96,0.1c-68.24,0-136.48,0.01-204.72-0.05c-1.96,0-5.32,1.25-5.28-2.22
		c0.04-3.12,3.23-1.98,5.1-1.98C352.7,341.88,387.01,341.89,421.31,341.89z"/>
	<path class="st0" d="M420.93,384.58c-34.05,0-68.1,0-102.15,0c-1.12,0-2.33,0.23-3.34-0.1c-0.88-0.29-1.56-1.23-2.32-1.88
		c0.7-0.72,1.29-1.75,2.14-2.07c0.99-0.38,2.21-0.16,3.33-0.16c68.23,0,136.46-0.01,204.68,0.05c1.95,0,5.32-1.22,5.3,2.18
		c-0.02,3.13-3.25,1.94-5.11,1.94C489.29,384.6,455.11,384.58,420.93,384.58z"/>
	<path class="st0" d="M420.98,365.3c-34.04,0-68.09,0-102.13,0c-1.12,0-2.32,0.22-3.34-0.1c-0.89-0.28-1.59-1.19-2.37-1.82
		c0.82-0.72,1.54-1.63,2.48-2.08c0.71-0.34,1.71-0.08,2.59-0.08c68.46,0,136.92,0,205.39,0c0.37,0,0.81-0.12,1.11,0.02
		c1.37,0.64,2.71,1.37,4.05,2.06c-1.38,0.67-2.76,1.92-4.15,1.92c-31.67,0.11-63.35,0.09-95.02,0.09
		C426.71,365.3,423.84,365.3,420.98,365.3z"/>
</g>
<g>
	<path class="st1" d="M1341.52,138.07c2.08,0.94,3.88,1.49,5.39,2.48c5.42,3.56,10.79,7.2,16.06,10.97
		c2.17,1.55,4.02,1.38,6.56,0.72c6.62-1.73,9.46-5.76,9.93-12.42c0.33-4.69,1.59-9.33,2.5-13.98c0.92-4.75,3.41-6.92,8.26-6.97
		c7.36-0.09,14.72-0.08,22.08-0.01c5.08,0.05,7.52,2.17,8.48,7.15c1.25,6.49,2.29,13.02,3.84,19.44c0.41,1.72,2.09,3.42,3.63,4.52
		c5.84,4.18,11.09,2.8,16.31-1.69c3.57-3.07,7.75-5.44,11.71-8.04c3.76-2.46,6.93-2.22,10.12,0.9c5.43,5.33,10.81,10.73,16.12,16.18
		c3.32,3.41,3.55,6.36,0.86,10.4c-3.59,5.4-7.2,10.79-10.98,16.06c-1.64,2.28-1.46,4.24-0.8,6.91c1.67,6.8,5.92,9.3,12.5,9.75
		c4.44,0.3,8.83,1.53,13.22,2.43c5.64,1.16,7.4,3.3,7.42,8.95c0.03,6.99,0.02,13.98,0,20.97c-0.02,5.9-1.76,8.03-7.6,9.18
		c-5.87,1.15-11.74,2.33-17.65,3.25c-3.14,0.49-4.73,2.02-6.28,4.88c-3.06,5.65-2.23,10.1,1.79,14.83c3.14,3.68,5.6,7.94,8.28,12
		c2.78,4.2,2.56,7.2-0.89,10.73c-5.23,5.35-10.53,10.65-15.88,15.88c-3.35,3.27-6.54,3.54-10.43,0.95
		c-5.61-3.73-11.2-7.49-16.69-11.37c-1.96-1.39-3.62-1.22-5.87-0.62c-6.6,1.75-9.9,5.58-10.27,12.54c-0.24,4.57-1.58,9.07-2.44,13.6
		c-0.96,5.06-3.35,7.24-8.37,7.3c-7.36,0.09-14.72,0.08-22.08,0c-5.05-0.06-7.48-2.22-8.44-7.22c-1.25-6.49-2.28-13.02-3.84-19.44
		c-0.41-1.7-2.14-3.4-3.7-4.46c-5.66-3.83-10.84-3.11-16,1.54c-3.49,3.14-7.72,5.48-11.67,8.09c-3.97,2.61-7.12,2.38-10.43-0.86
		c-5.45-5.32-10.84-10.69-16.17-16.13c-3.17-3.23-3.45-6.33-0.94-10.12c3.71-5.62,7.49-11.2,11.39-16.69
		c1.47-2.07,1.27-3.84,0.67-6.23c-1.72-6.75-5.81-9.68-12.65-10.11c-4.69-0.3-9.32-1.61-13.95-2.59c-4.74-1.01-6.63-3.28-6.66-8.02
		c-0.06-7.61-0.06-15.23,0.01-22.84c0.04-4.32,1.97-6.77,6.19-7.65c6.46-1.35,12.95-2.57,19.46-3.66c2.86-0.48,4.29-1.92,5.74-4.49
		c3.29-5.85,2.44-10.55-1.83-15.48c-3.08-3.56-5.45-7.75-8.07-11.69c-2.81-4.23-2.6-7.17,0.86-10.7
		c5.24-5.35,10.5-10.68,15.91-15.86C1337.67,139.95,1339.68,139.18,1341.52,138.07z M1401.38,179.64
		c-23.44-0.02-42.64,19.1-42.73,42.57c-0.09,23.64,19.15,43.02,42.69,43.04c23.39,0.01,42.67-19.23,42.73-42.63
		C1444.13,198.92,1425.01,179.67,1401.38,179.64z"/>
	<path class="st1" d="M1401.49,427.63c55.64,0,111.28,0,166.91,0c1.62,0,3.25-0.03,4.86,0.12c7.1,0.66,11.53,7.08,9.57,13.92
		c-1.55,5.39-3.14,10.77-4.85,16.1c-3.33,10.37-14.45,18.14-26.53,18.65c-0.62,0.03-1.25,0.02-1.87,0.02c-98.8,0-197.6,0-296.4,0.01
		c-8.34,0-15.98-2.21-21.64-8.43c-3.09-3.39-5.42-7.7-7.25-11.95c-1.96-4.54-2.96-9.5-4.35-14.29c-1.98-6.84,2.36-13.33,9.42-14.03
		c1.61-0.16,3.24-0.13,4.86-0.13C1289.96,427.63,1345.73,427.63,1401.49,427.63z M1401.39,458.81c0,0.01,0,0.02,0,0.03
		c9.34,0,18.67,0.05,28.01-0.02c4.99-0.04,7.98-2.77,7.9-6.97c-0.08-4.04-3.06-6.67-7.81-6.68c-18.8-0.03-37.6-0.01-56.4-0.01
		c-0.25,0-0.5,0-0.75,0.01c-4.13,0.23-6.93,2.96-6.95,6.78c-0.02,3.84,2.69,6.76,6.86,6.82
		C1381.97,458.9,1391.68,458.81,1401.39,458.81z"/>
	<path class="st1" d="M1509.21,236.1c0-8.64,0-16.73,0-25.13c0.96-0.11,1.9-0.31,2.84-0.31c6.24-0.03,12.48-0.08,18.71,0
		c13.86,0.18,24.32,10.46,24.69,24.34c0.16,5.86,0.04,11.73,0.04,17.6c0,55.29,0,110.58,0,165.88c0,1.48,0,2.96,0,4.7
		c-102.75,0-205.23,0-308.25,0c0-1.31,0-2.63,0-3.95c0-60.66,0.14-121.32-0.1-181.98c-0.06-15.92,11.9-27.56,26.71-26.67
		c6.43,0.39,12.91,0.07,19.57,0.07c0,8.55,0,16.73,0,25.46c-2.46,0-4.9,0-7.35,0c-10.42,0-13.4,2.95-13.4,13.25
		c0,38.32,0,76.63,0,114.95c0,10.61-0.02,21.22,0.01,31.83c0.02,7.71,3.78,11.5,11.51,11.5c78.1,0.02,156.2,0.02,234.3,0
		c7.76,0,11.52-3.75,11.52-11.48c0.02-49.55,0.02-99.1,0-148.65c0-7.83-3.61-11.35-11.49-11.4
		C1515.55,236.09,1512.58,236.1,1509.21,236.1z"/>
	<path class="st1" d="M1401.74,341.89c33.93,0,67.87,0,101.8,0c1,0,2.1-0.25,2.97,0.08c0.99,0.38,1.79,1.28,2.66,1.96
		c-0.82,0.74-1.53,1.74-2.5,2.16c-0.84,0.37-1.96,0.1-2.96,0.1c-68.24,0-136.48,0.01-204.72-0.05c-1.96,0-5.32,1.25-5.28-2.22
		c0.04-3.12,3.23-1.98,5.1-1.98C1333.12,341.88,1367.43,341.89,1401.74,341.89z"/>
	<path class="st1" d="M1401.36,384.58c-34.05,0-68.1,0-102.15,0c-1.12,0-2.33,0.23-3.34-0.1c-0.88-0.29-1.56-1.23-2.32-1.88
		c0.7-0.72,1.29-1.75,2.14-2.07c0.99-0.38,2.21-0.16,3.33-0.16c68.23,0,136.46-0.01,204.68,0.05c1.95,0,5.32-1.22,5.3,2.18
		c-0.02,3.13-3.25,1.94-5.11,1.94C1469.71,384.6,1435.54,384.58,1401.36,384.58z"/>
	<path class="st1" d="M1401.4,365.3c-34.04,0-68.09,0-102.13,0c-1.12,0-2.32,0.22-3.34-0.1c-0.89-0.28-1.59-1.19-2.37-1.82
		c0.82-0.72,1.54-1.63,2.48-2.08c0.71-0.34,1.71-0.08,2.59-0.08c68.46,0,136.92,0,205.39,0c0.37,0,0.81-0.12,1.11,0.02
		c1.37,0.64,2.71,1.37,4.05,2.06c-1.38,0.67-2.76,1.92-4.15,1.92c-31.67,0.11-63.35,0.09-95.02,0.09
		C1407.14,365.3,1404.27,365.3,1401.4,365.3z"/>
</g>
</svg>
