<?xml version="1.0" encoding="utf-8"?>
<!-- Generator: Adobe Illustrator 25.2.3, SVG Export Plug-In . SVG Version: 6.00 Build 0)  -->
<svg version="1.1" id="Layer_1" xmlns="http://www.w3.org/2000/svg" xmlns:xlink="http://www.w3.org/1999/xlink" x="0px" y="0px"
	 viewBox="0 0 841.89 595.28" style="enable-background:new 0 0 841.89 595.28;" xml:space="preserve">
<style type="text/css">
	.st0{fill:#FFFFFF;}
</style>
<path class="st0" d="M611.79,288.63c-3.3-28.07-15.4-51.21-39.62-66.74c-7.74-4.97-16.56-8.26-24.99-12.37
	c-0.18,0.39-0.09,0.02,0.13-0.25c14.29-17.8,17-38.58,15.31-60.38c-0.52-6.79-4.77-10.62-11.66-10.67
	c-8.08-0.06-16.25-0.18-24.23,0.86c-15.29,2-29.24,7.41-39.76,19.39c-2.69,3.06-4.9,6.55-7.31,9.82c-0.13-0.12-0.36-0.26-0.48-0.47
	c-0.59-0.95-1.15-1.92-1.72-2.89c-8.7-14.64-20.66-25.8-35.86-33.48c-6.82-3.45-13.35-1.75-16.41,4.22
	c-3.04,5.93-0.62,12.33,6.17,15.76c15.29,7.72,25.8,19.73,31.93,35.61c3.19,8.26,5.19,16.82,5.63,26.34
	c-26.07-8.87-50.87-6.94-74.62,6.59c-14.62-27.67-38.01-36.08-67.53-31.78c0-1.56-0.02-2.91,0-4.26c0.22-11.1,0.49-22.2,0.67-33.29
	c0.12-7.49-4.16-12.46-10.74-12.68c-6.76-0.22-11.53,4.73-11.69,12.24c-0.28,12.72-0.51,25.44-0.78,38.16
	c-0.02,1.04-0.15,2.08-0.3,3.98c-1.74-2.74-3-4.71-4.24-6.68c-10.2-16.25-20.39-32.52-30.62-48.76c-3.07-4.87-7.54-6.95-12.26-5.89
	c-8.05,1.8-11.41,10.27-6.83,17.63c10.47,16.82,21.05,33.58,31.58,50.36c0.96,1.54,1.9,3.1,3.29,5.37c-1.76-0.7-2.77-1.06-3.74-1.51
	c-10.88-4.96-21.75-9.93-32.62-14.91c-9.63-4.41-13.77-3.21-19.18,5.62c0,2,0,3.99,0,5.99c2.02,4.61,5.75,7.11,10.25,9.07
	c10.59,4.62,21.04,9.57,31.45,14.35c-0.02,0.39,0.02,0.55-0.04,0.64c-1.02,1.56-2.12,3.07-3.07,4.68
	c-13.01,21.91-15.23,44.08,0.4,65.48c11.08,15.17,22.85,29.95,35.4,43.93c34.2,38.08,71.39,73.2,108.85,108.03
	c4.57,4.25,9.06,8.58,13.8,12.63c15.47,13.26,38.1,7.62,44.38-10.99c2.33-6.9,1.8-13.8-0.61-20.53c-0.84-2.34-0.24-3.35,1.92-4.22
	c8.4-3.39,16.28-2.44,23.9,2.31c23.9,14.88,51.51,8.69,66.86-14.99c10.51-16.21,20.91-32.49,31.42-48.7
	C608.59,339.06,614.88,314.93,611.79,288.63z M503.83,173.32c6.22-7.49,15.1-10.31,24.35-11.88c3.99-0.68,8.06-0.85,12.08-1.24
	c2.16,17.87-6.79,35.47-21.89,43.49c-8.17,4.34-16.88,7.17-26.6,8.92C493.02,198.3,494.51,184.54,503.83,173.32z M442.97,442.6
	c-1-0.45-1.93-1.17-2.73-1.93c-30.5-29.27-60.98-58.56-91.46-87.84c-0.27-0.26-0.48-0.57-1.05-1.27c3.78-2.41,7.6-4.64,11.18-7.19
	c3.99-2.85,5.71-6.82,4.57-11.76c-1.1-4.78-4.23-7.86-8.93-8.35c-2.75-0.28-5.95,0.57-8.45,1.87c-4.95,2.58-9.55,5.83-14.74,9.08
	c-9.4-10.61-18.91-20.98-27.98-31.72c-5.86-6.94-11.2-14.34-16.56-21.68c-9.46-12.94-9.01-26.78-0.9-39.61
	c12.28-19.42,30.54-30.76,53.54-32.53c13.85-1.06,25.72,4.2,32.85,17.18c4.13,7.52,8.12,15.11,12.32,22.95
	c-6.71,4.22-13.05,8.11-19.3,12.16c-4.69,3.04-6.45,8.38-4.67,13.4c1.69,4.76,6.67,7.96,11.81,7.18c2.02-0.3,4.04-1.24,5.83-2.3
	c4.92-2.9,9.71-6.02,15.39-9.58c9.3,25.5,18.44,50.58,27.73,76.04c-4.59,2.55-8.61,4.77-12.62,7.02c-6.16,3.45-8.36,9.79-5.39,15.48
	c3.02,5.79,9.75,7.57,16.09,4.23c2.86-1.51,5.68-3.09,8.83-4.8c3.17,9.91,6.3,19.6,9.36,29.32c3.8,12.11,7.55,24.25,11.28,36.38
	c0.4,1.3,0.76,2.68,0.75,4.01C449.68,442.19,446.49,444.19,442.97,442.6z M589.76,308.11c-1.07,15.39-6.65,29.24-15.1,42.09
	c-10.27,15.62-20.28,31.42-30.42,47.12c-8.96,13.87-22.71,16.96-36.79,8.3c-13.38-8.24-27.47-9.77-42.28-4.46
	c-0.69,0.25-1.38,0.47-2.76,0.94c-16.4-55.21-36.65-108.62-57.74-162.06c11.93-7.31,24.86-10.9,38.79-9.29
	c7.87,0.91,15.57,3.26,23.38,4.77c13.22,2.54,26.28,1.58,39.21-2.08c25.73-7.29,48.3-1.7,66.49,18
	C587.23,267.34,591.21,287.09,589.76,308.11z"/>
</svg>
