<?xml version="1.0" encoding="utf-8"?>
<!-- Generator: Adobe Illustrator 25.2.3, SVG Export Plug-In . SVG Version: 6.00 Build 0)  -->
<svg version="1.1" id="Layer_1" xmlns="http://www.w3.org/2000/svg" xmlns:xlink="http://www.w3.org/1999/xlink" x="0px" y="0px"
	 viewBox="0 0 841.89 595.28" style="enable-background:new 0 0 841.89 595.28;" xml:space="preserve">
<style type="text/css">
	.st0{fill:#FFFFFF;}
	.st1{fill:#AD7BE9;}
</style>
<g>
	<path class="st0" d="M351.01,482.28c-3.84-2.17-7.16-4.8-8.6-9.22c-3.07-9.46,3.61-18.81,13.79-18.92
		c15.14-0.15,30.29-0.05,45.44-0.05c1.44,0,2.87,0,4.61,0c0-9.55,0-18.96,0-28.81c-1.36,0-2.76,0-4.16,0
		c-35.7,0-71.4,0.05-107.1-0.02c-25.69-0.05-47.21-14.99-55.34-38.97c-2.08-6.14-3.14-12.92-3.18-19.42
		c-0.26-47.61-0.23-95.22-0.11-142.83c0.08-33.11,25.41-58.34,58.59-58.45c32.82-0.11,65.63-0.04,98.45-0.02
		c9.45,0.01,15.98,5.91,16.02,14.37c0.03,8.49-6.47,14.47-15.89,14.47c-32.7,0.02-65.39-0.03-98.09,0.03
		c-14.55,0.02-25.47,8.1-29.17,21.62c-0.78,2.86-1.04,5.93-1.04,8.91c-0.06,47.01-0.07,94.02-0.03,141.03
		c0.02,18.04,12.33,30.39,30.35,30.4c83.66,0.04,167.33,0.04,250.99,0c17.02-0.01,28.87-11.13,30.18-28.01
		c0.68-8.69,5.24-14.13,12.69-15.12c6.96-0.93,12.82,3.09,15.78,10.84c0.08,0.21,0.28,0.38,0.43,0.57c0,3.13,0,6.25,0,9.38
		c-1.03,4.04-1.78,8.17-3.15,12.09c-8.35,23.91-29.69,39.04-55.29,39.1c-35.8,0.09-71.6,0.02-107.4,0.02c-1.39,0-2.78,0-4.2,0
		c0,9.8,0,19.12,0,28.81c1.46,0,2.75,0,4.05,0c15.38,0,30.76-0.1,46.13,0.05c10.07,0.1,16.66,9.16,13.86,18.57
		c-1.37,4.61-4.72,7.34-8.68,9.56C444.29,482.28,397.65,482.28,351.01,482.28z"/>
	<path class="st0" d="M605.62,298.31c-1.43,2.45-2.46,5.31-4.39,7.28c-4.22,4.32-9.56,5.43-15.24,3.21
		c-5.65-2.22-8.72-6.62-9.15-12.66c-0.23-3.23-0.08-6.48-0.08-9.72c0-19.08,0.08-38.17-0.06-57.25c-0.04-4.88-0.55-9.8-1.26-14.64
		c-1.18-8.07,3.56-15.24,11.5-16.9c7.38-1.54,14.61,3.12,16.63,10.81c0.79,3,1.36,6.05,2.04,9.07
		C605.62,244.45,605.62,271.38,605.62,298.31z"/>
	<path class="st0" d="M379.17,366.93c-25.78-0.09-47.82-8.06-67.82-21.95c-9.47-6.57-8.52-19.54,1.73-24.83
		c6.44-3.32,13.11-6.31,17.25-12.55c2.7-4.07,5.03-8.45,6.95-12.94c4.23-9.92,7.25-20.45,12.29-29.91
		c11.72-21.99,30.71-33.28,55.52-35c1.54-0.11,3.43-1.06,4.41-2.24c27.04-32.52,53.99-65.12,80.93-97.72
		c11.98-14.5,31.26-19.92,48.42-13.55c17.65,6.55,28.87,22.9,28.49,41.8c-0.2,9.81-3.47,18.6-9.74,26.17
		c-28.28,34.15-56.61,68.25-84.86,102.43c-1.06,1.28-2.06,3.12-2.03,4.69c0.44,26.64-11.98,46.12-33.6,60.37
		c-13.64,8.99-28.89,13.28-45.09,14.45C387.36,366.49,382.69,366.72,379.17,366.93z M347,332.36c6.39,1.65,11.96,3.69,17.7,4.46
		c18.39,2.45,36.57,1.78,53.29-7.4c12.48-6.85,21.81-16.4,23.58-31.55c1.54-13.17-5.33-27.47-16.67-34.01
		c-12.81-7.38-27.62-6.46-38.99,1.76c-8.38,6.06-12.62,14.6-15.92,23.85C364.56,304.62,359.63,320.01,347,332.36z M460.03,256.67
		c3.21-3.86,6.81-8.19,10.41-12.53c21.4-25.79,42.79-51.58,64.19-77.35c3.09-3.72,4.63-7.88,3.56-12.68
		c-1.32-5.93-5.02-9.79-10.94-11.17c-5.97-1.39-10.83,0.72-14.68,5.37c-15.85,19.15-31.7,38.3-47.55,57.45
		c-8.87,10.72-17.74,21.45-26.15,31.63C445.94,243.83,452.82,250.1,460.03,256.67z"/>
</g>
</svg>
