<?xml version="1.0" encoding="utf-8"?>
<!-- Generator: Adobe Illustrator 25.2.3, SVG Export Plug-In . SVG Version: 6.00 Build 0)  -->
<svg version="1.1" id="Layer_1" xmlns="http://www.w3.org/2000/svg" xmlns:xlink="http://www.w3.org/1999/xlink" x="0px" y="0px"
	 viewBox="0 0 841.89 595.28" style="enable-background:new 0 0 841.89 595.28;" xml:space="preserve">
<style type="text/css">
	.st0{fill:#1F8A70;}
</style>
<g>
	<path class="st0" d="M236.85,308.41c0-7.19,0-14.38,0-21.57c0.3-2.59,0.62-5.18,0.9-7.78c4.31-38.97,19.05-73.44,45.05-102.83
		c28.5-32.22,64.01-52.29,106.44-59.84c6.92-1.23,13.95-1.92,20.92-2.86c7.19,0,14.38,0,21.57,0c2.6,0.29,5.2,0.59,7.8,0.88
		c39.24,4.38,73.99,19.21,103.39,45.6c38.59,34.64,59.34,78.14,61.88,129.94c1.63,33.23-5.2,64.96-21.49,94.02
		c-33.73,60.18-85.35,93.19-154.28,97.43c-39.78,2.45-76.71-8.16-109.79-30.53c-43.38-29.33-70.01-69.94-79.54-121.54
		C238.44,322.42,237.79,315.39,236.85,308.41z M420.89,142.89c-85.44,0.06-154.8,69.52-154.66,154.88
		c0.14,85.36,69.25,154.46,154.6,154.58c85.35,0.13,154.82-69.27,154.84-154.7C575.69,212.23,506.27,142.83,420.89,142.89z"/>
	<path class="st0" d="M386.02,336.4c-1.84,0-3.14,0-4.44,0c-17.5,0-35,0.02-52.49-0.01c-13.09-0.02-20.52-7.4-20.57-20.47
		c-0.05-12.34-0.06-24.69,0.01-37.03c0.07-12.69,7.51-20.09,20.13-20.11c17.62-0.03,35.24-0.01,52.85-0.01c1.3,0,2.61,0,4.32,0
		c0.08-1.58,0.21-2.95,0.22-4.33c0.01-17.02,0.39-34.05-0.1-51.05c-0.45-15.88,9.92-22.92,22.18-22.35
		c11.48,0.53,23.01,0.09,34.51,0.12c12.56,0.04,20.06,7.56,20.08,20.19c0.03,18.93,0.01,37.86,0.01,57.25
		c1.39,0.06,2.64,0.17,3.9,0.17c17.74,0.01,35.47-0.01,53.21,0.01c13.08,0.01,20.49,7.42,20.51,20.5c0.02,12.1,0.01,24.21,0,36.31
		c-0.01,13.44-7.43,20.79-20.99,20.8c-17.38,0.01-34.76,0-52.13,0c-1.31,0-2.62,0-4.49,0c0,1.45,0,2.72,0,3.98
		c0,17.62,0.01,35.24,0,52.85c-0.01,13.33-7.37,20.72-20.66,20.75c-11.74,0.03-23.49,0.03-35.23,0
		c-13.28-0.03-20.76-7.42-20.8-20.67c-0.06-17.38-0.02-34.76-0.02-52.13C386.02,339.75,386.02,338.32,386.02,336.4z"/>
</g>
</svg>
