<?xml version="1.0" encoding="utf-8"?>
<!-- Generator: Adobe Illustrator 25.2.3, SVG Export Plug-In . SVG Version: 6.00 Build 0)  -->
<svg version="1.1" id="Layer_1" xmlns="http://www.w3.org/2000/svg" xmlns:xlink="http://www.w3.org/1999/xlink" x="0px" y="0px"
	 viewBox="0 0 841.89 595.28" style="enable-background:new 0 0 841.89 595.28;" xml:space="preserve">
<style type="text/css">
	.st0{fill:#FFA76E;}
</style>
<path class="st0" d="M604.09,425.23c-9.49-5.29-18.82-10.87-28.32-16.17c-2.13-1.19-2.96-2.41-2.93-4.92
	c0.06-4.97-0.15-9.98-0.71-14.92c-4.31-37.63-35.1-69.97-72.65-76.33c-5.24-0.89-10.57-1.29-15.82-1.92c0-22.3,0-44.79,0-67.41
	c1.51,0,2.85,0,4.18,0c12.47,0,24.94,0.03,37.41-0.01c8.26-0.02,12.81-4.53,12.82-12.7c0.02-18.91-0.03-37.82,0.03-56.73
	c0.02-5.17-3.02-9.86-7.75-11.95c-27.44-12.13-54.84-24.34-82.29-36.42c-2.18-0.96-4.53-1.45-6.9-1.46
	c-38.4-0.09-76.8-0.08-115.2-0.01c-2.18,0-4.52,0.41-6.5,1.28c-27.59,12.14-55.12,24.42-82.68,36.6c-4.73,2.09-7.77,6.78-7.75,11.96
	c0.07,18.9,0.01,37.81,0.03,56.71c0.01,8.18,4.54,12.68,12.8,12.71c12.47,0.04,24.94,0.01,37.41,0.01c1.34,0,2.68,0,4.4,0
	c0,1.83,0,3.3,0,4.76c0,44.27,0,88.54,0,132.81c0,9.3,4.15,13.42,13.49,13.42c30.92,0.01,61.84,0,92.77,0c1.45,0,2.54,0,4.14,0
	c0,7.11-0.01,13.71,0,20.3c0.02,8.9,4.41,13.22,13.45,13.23c20.9,0.01,41.81-0.08,62.71,0.11c2.81,0.03,5.9,0.94,8.35,2.34
	c18.65,10.68,37.16,21.59,55.73,32.39c11.16,6.49,23.17,9.43,36.02,7.52c19.29-2.86,32.93-13.62,42.01-30.44
	c0.16-1.58,0.37-3.72,0.52-5.3C611.31,430.24,608.11,427.47,604.09,425.23z M419.53,147.04c-5.1,15.45-20.11,25.55-37.16,25.3
	c-15.86-0.24-30.87-10.99-35.08-25.3C371.35,147.04,395.34,147.04,419.53,147.04z M400.14,368.28c-0.78,1.95-1.4,3.31-4.06,3.3
	c-29.31-0.12-58.63-0.07-87.94-0.08c-0.6,0-1.2-0.08-2.24-0.16c0-1.58,0-3.03,0-4.48c0-44.16,0-88.31,0-132.47
	c0-9.34-4.12-13.48-13.4-13.48c-12.22-0.01-24.45,0-36.67,0c-1.35,0-2.7,0-4.56,0c0-2.96,0-5.66,0-8.35
	c0-9.85-0.06-19.71,0.08-29.56c0.02-1.18,0.83-3,1.77-3.42c23.39-10.51,46.85-20.87,70.4-31.3c9.45,28.99,28.69,45.39,59.51,46.45
	c14.16,0.49,27.01-4.03,38.23-12.78c11.11-8.65,17.98-20.15,21.73-33.8c18.13,8.02,35.88,15.87,53.64,23.73
	c5.47,2.42,10.97,4.76,16.37,7.31c1.03,0.48,2.38,1.75,2.39,2.67c0.16,12.83,0.11,25.67,0.11,39.04c-12.83,0-25.17,0.41-37.47-0.11
	c-13.89-0.59-17.5,4.62-17.27,17.36c0.44,24.07,0.08,48.15,0.2,72.22c0.01,2.61-0.82,3.53-3.25,4.31
	C430.13,323.51,410.89,341.38,400.14,368.28z M505.6,339.08c-9.69,9.74-13.69,21.8-14.01,35.2c-0.24,10.07-0.05,20.16-0.05,30.6
	c-25.14,0-49.76,0-74.74,0c-1.19-23.47,7.22-42.44,25.37-57.03c18.32-14.72,44.44-18.85,64.3-10.21
	C506.17,338.14,505.97,338.7,505.6,339.08z M514,396.33c0-7.73-0.12-15.47,0.04-23.2c0.18-8.93,4.04-16.09,11.23-21.34
	c0.86-0.63,3.04-0.79,3.68-0.19c15.14,14.44,21.81,32.23,20.91,53.25c-11.99,0-23.66,0-35.86,0C514,401.97,514,399.15,514,396.33z
	 M567.14,447.57c-5.21,0.27-11.08,0.15-15.66-1.96c-10.88-5.02-21.16-11.32-31.68-17.1c0.13-0.38,0.26-0.77,0.39-1.15
	c13.81,0,27.63-0.01,41.44,0.03c0.94,0,1.99,0.3,2.81,0.76c6.38,3.6,12.73,7.28,19.48,11.17
	C579.14,444.24,573.51,447.23,567.14,447.57z"/>
</svg>
