<svg xmlns="http://www.w3.org/2000/svg" xmlns:xlink="http://www.w3.org/1999/xlink" width="1519" height="300.7" viewBox="0 0 1519 300.7"><defs><style>.cls-1{isolation:isolate;}.cls-2{fill:#002811;}.cls-3,.cls-4{opacity:0.42;}.cls-3,.cls-4,.cls-5{mix-blend-mode:screen;}.cls-3{fill:url(#linear-gradient);}.cls-4{fill:url(#linear-gradient-2);}.cls-5{opacity:0.41;}.cls-6{mix-blend-mode:color-dodge;}.cls-10,.cls-11,.cls-12,.cls-13,.cls-14,.cls-7,.cls-8,.cls-9{fill:none;stroke-miterlimit:10;}.cls-7{stroke:url(#linear-gradient-3);}.cls-8{stroke:url(#linear-gradient-4);}.cls-9{stroke:url(#linear-gradient-5);}.cls-10{stroke:url(#linear-gradient-6);}.cls-11{stroke:url(#linear-gradient-7);}.cls-12{stroke:url(#linear-gradient-8);}.cls-13{stroke:url(#linear-gradient-9);}.cls-14{stroke:url(#linear-gradient-10);}</style><linearGradient id="linear-gradient" x1="1170.2169" y1="227.7691" x2="1464.4388" y2="-66.4527" gradientUnits="userSpaceOnUse"><stop offset="0.1341" stop-color="#999" stop-opacity="0"/><stop offset="0.9976" stop-color="#009444"/></linearGradient><linearGradient id="linear-gradient-2" x1="48.4578" y1="356.9435" x2="309.6591" y2="95.7422" gradientUnits="userSpaceOnUse"><stop offset="0" stop-color="#009444"/><stop offset="0.9162" stop-color="#999" stop-opacity="0"/></linearGradient><linearGradient id="linear-gradient-3" x1="1027.4917" y1="479.3167" x2="1714.0293" y2="479.3167" xlink:href="#linear-gradient"/><linearGradient id="linear-gradient-4" x1="1032.3087" y1="513.9913" x2="1708.0629" y2="513.9913" xlink:href="#linear-gradient"/><linearGradient id="linear-gradient-5" x1="1444.7643" y1="292.9627" x2="1747.7871" y2="292.9627" xlink:href="#linear-gradient"/><linearGradient id="linear-gradient-6" x1="1471.0592" y1="334.0463" x2="1616.2662" y2="334.0463" xlink:href="#linear-gradient"/><linearGradient id="linear-gradient-7" x1="-192.2156" y1="479.3089" x2="494.3219" y2="479.3089" gradientTransform="matrix(-1, 0, 0, 1, 299.479, 0)" xlink:href="#linear-gradient"/><linearGradient id="linear-gradient-8" x1="-187.3987" y1="513.9835" x2="488.3555" y2="513.9835" gradientTransform="matrix(-1, 0, 0, 1, 299.479, 0)" xlink:href="#linear-gradient"/><linearGradient id="linear-gradient-9" x1="225.057" y1="292.9549" x2="528.0797" y2="292.9549" gradientTransform="matrix(-1, 0, 0, 1, 299.479, 0)" xlink:href="#linear-gradient"/><linearGradient id="linear-gradient-10" x1="251.3518" y1="334.0385" x2="396.5589" y2="334.0385" gradientTransform="matrix(-1, 0, 0, 1, 299.479, 0)" xlink:href="#linear-gradient"/></defs><g class="cls-1"><g id="Layer_1" data-name="Layer 1"><rect class="cls-2" x="-6.6634" y="-3.775" width="1532.3268" height="308.25"/><path class="cls-3" d="M1519.7872,345.1949v-183.35a4.4728,4.4728,0,0,0,0-8.9179V-10.9506c0-.0142-.0125-.0236-.0142-.0375s.0086-.0269.0054-.0412c-.0012-.0059-.0073-.0086-.0088-.0143a.3614.3614,0,0,0-.0584-.108.3361.3361,0,0,0-.0394-.0589c-.0081-.0081-.01-.02-.0186-.0277l-.0037-.0016c-.0073-.0061-.0179-.0059-.0257-.0114a.376.376,0,0,0-.1624-.0706l-.0028-.0015c-.0064-.0007-.0115.0048-.0177.0043l-.0064.0009c-.0084-.0006-.0144-.0081-.0229-.0081H932.0286a.3755.3755,0,0,0-.3687.3047.375.375,0,0,0,.2289.42l187.1182,74.917a2.3663,2.3663,0,0,0,2.1822,2.9049l7.4554,76.9817a2.855,2.855,0,1,0,2.307,5.0984l41.9839,44.7651a1.7287,1.7287,0,0,0,2.7511,2.0882l25.0178,13.0378a2.314,2.314,0,0,0-.1273.7283,2.33,2.33,0,0,0,4.4094,1.06l45.6232,14.6483a2.22,2.22,0,0,0-.0322.3189,2.2461,2.2461,0,0,0,4.03,1.3726l21.844,11.64a1.8258,1.8258,0,0,0,3.1431,1.7007l32.7368,17.9907a3.1919,3.1919,0,1,0,6.0668.757l30.9066-8.0743a3.2367,3.2367,0,0,0,5.8753.3658l111.6955,44.74a6.673,6.673,0,0,0,10.517,7.3239l38.7423,42.8292a4.5,4.5,0,1,0,3.6524-1.3972Zm-.7513-192.268c-.0427.0036-.0852.0082-.1277.0129l-17.13-85.8844a4.2485,4.2485,0,0,0,.2135-8.1l17.0444-66.91Zm-.3673,192.305-37.5811-146.9781a3.4106,3.4106,0,0,0,1.5179-5.29l20.0939-19.14,13.74-13.0874a4.4542,4.4542,0,0,0,2.597,1.1087v183.35C1518.9128,345.2052,1518.7888,345.2118,1518.6686,345.2319ZM1204.1239,207.9288l4.8864-12.0928,9.5422-23.6144a3.1918,3.1918,0,0,0,2.9851-.6239l29.4451,28.8568a2.2394,2.2394,0,0,0-.404,1.2732l-45.4588,7.45A2.3289,2.3289,0,0,0,1204.1239,207.9288Zm-72.0047-60.6435a1.5633,1.5633,0,0,0-.0015-.624l20.3-5.0752,20.9275-5.2318a1.5245,1.5245,0,0,0,2.3245.4671l40.8994,30.5214a3.3,3.3,0,0,0-.25.5246l-49.5124-12.1029ZM1087.4309-10.4282l68.795,14.6093a4.4185,4.4185,0,0,0-.0566.5613,4.4816,4.4816,0,0,0,1.743,3.5361l-35.5989,54.385a2.2673,2.2673,0,0,0-1.6117-.1171L1113.5453,46.85Zm385.77,302.3185a6.6612,6.6612,0,0,0-5.2136,2.5114l-128.1734-91.1034a3.2188,3.2188,0,0,0,.3916-1.3344l52.774-2.4733,83.5116-3.9138a3.4294,3.4294,0,0,0,2.793,2.847l-6.0293,93.4691C1473.2363,291.8928,1473.2188,291.89,1473.2005,291.89Zm-218.3637-89.1427,45.9348,14.0863a1.93,1.93,0,0,0,.3108,1.4165l-21.7984,19.7372a1.8111,1.8111,0,0,0-1.7666-.2184l-23.1368-34.4A2.25,2.25,0,0,0,1254.8368,202.7476Zm.21-1.3839a2.24,2.24,0,0,0-3.5358-1.444l-29.4467-28.8583a3.3125,3.3125,0,0,0,.469-.7931l111.2337,30.9689c-.0064.0416-.0078.0844-.0127.1265ZM1122.94,63.0785l20.4259-31.205,15.1761-23.1843a4.45,4.45,0,0,0,1.759.5227V61.14a1.867,1.867,0,0,0-1.4653,1.544l-8.1667.3882-26.9907,1.283A2.3807,2.3807,0,0,0,1122.94,63.0785Zm332.8983-42.4763a2.9776,2.9776,0,0,0,1.8175-.6264l39.681,40.242a4.2048,4.2048,0,0,0-.7112,4.3666l-75.4112,38.7916a4.8338,4.8338,0,0,0-1.8337-1.7141l35.61-81.1958A2.9769,2.9769,0,0,0,1455.8382,20.6022Zm20.62,174.2241-136.1343,6.38,112.74-31.0351a2.993,2.993,0,0,0,4.5169,1.2866l19.71,21.3369A3.4092,3.4092,0,0,0,1476.4586,194.8263Zm-253.68-25.7885,103.0363-11.0452a2.2232,2.2232,0,0,0,2.1356,1.623c.0236,0,.0454-.0062.0687-.0069l7.943,39.051a3.25,3.25,0,0,0-2.0019,1.8513l-111.2327-30.9686A3.303,3.303,0,0,0,1222.7789,169.0378ZM1164.7615,9.4528l84.5165,86.354L1221.1059,74.984l-12.5008-9.24a2.0445,2.0445,0,0,0,.2151-.9015,2.0662,2.0662,0,0,0-2.0662-2.0662,2.0435,2.0435,0,0,0-.9329.2323l-9.3659-12.2163Zm39.956,55.6836a2.0529,2.0529,0,0,0,3.4423,1.2129l34.8937,25.791,7.2855,5.385-87.4313-34.0861Zm47.3573,36.2259a2.5385,2.5385,0,0,0,3.3064-2.0867h36.9708a2.57,2.57,0,0,0,.42,1.0905l-71.166,66.1281a3.3386,3.3386,0,0,0-.4019-.3022l6.481-13.6108Zm203.7634,64.65a2.9954,2.9954,0,0,0-2.9671,2.6293H1400.04a2.9845,2.9845,0,0,0-.2253-.8439l77.3424-46.7794a3.4383,3.4383,0,0,0,.906.8282l-21.28,44.3323A2.9754,2.9754,0,0,0,1455.8382,166.0126Zm-43.0866-58.0207-83.094,47.9748a2.2136,2.2136,0,0,0-3.9223,1.2786l-102.65,11.0037,189.5419-60.5126C1412.663,107.8249,1412.7105,107.9061,1412.7516,107.9919Zm-75.7794,90.4919c-.0936,0-.1819.02-.2736.0275l-2.1027-10.3378-5.84-28.7136a2.2,2.2,0,0,0,1.28-2.8441l83.0809-47.967a4.8617,4.8617,0,0,0,.6079.7207l-74.9686,89.65A3.2364,3.2364,0,0,0,1336.9722,198.4838Zm79.0346-87.8673a4.7667,4.7667,0,0,0,5.7289-3.3606L1476.47,118.61c-.01.1083-.0326.2129-.0326.3237a3.4128,3.4128,0,0,0,.3273,1.4445l-77.346,46.7816a3.0011,3.0011,0,0,0-1.0875-.8633l10.8524-34.1852Zm63.8717,4.8756a3.43,3.43,0,0,0-3.2581,2.382l-26.9945-5.6L1421.887,106.52a4.2451,4.2451,0,0,0-.3159-2.4819L1496.9747,65.25a4.2743,4.2743,0,0,0,1.7805,1.5734l-18.0461,48.7812A3.4134,3.4134,0,0,0,1479.8785,115.4921Zm-140.2506,84.3736a3.3053,3.3053,0,0,0-.2974-.36l74.9742-89.6571a4.81,4.81,0,0,0,.9844.5455l-11.6408,36.67-6.0331,19.0038a2.9887,2.9887,0,0,0-3.3349,4.0427l-43.5919,23.7339Zm55.0128-29.0959a2.9883,2.9883,0,0,0,5.3995-1.3767h52.8309c.002.0166.0027.0337.005.05l-112.8652,31.07Zm17.7634-63.7514-189.9213,60.6338a3.32,3.32,0,0,0-.3624-.6108l71.17-66.1316a2.5628,2.5628,0,0,0,1.6115.578,2.5888,2.5888,0,0,0,2.5352-2.066l114.8381,6.5891A4.83,4.83,0,0,0,1412.4041,107.0184ZM1292.352,98.5243h-36.9709a2.58,2.58,0,0,0-2.55-2.2118,2.5254,2.5254,0,0,0-.2611.0264l-11.9846-47.3412a3.0442,3.0442,0,0,0,.8262-.4912l51.38,48.9039A2.5653,2.5653,0,0,0,1292.352,98.5243Zm-52.8764-49.3116a3.0089,3.0089,0,0,0,.38-.0383l11.9834,47.3369a2.5709,2.5709,0,0,0-.525.3016l-87.24-89.1369a4.51,4.51,0,0,0,.3967-.5159l72.1432,37.9057a3.047,3.047,0,0,0,2.8622,4.1469ZM1163.1064,8.5292l13.4933,17.6,28.6243,37.3364a2.052,2.052,0,0,0-.4814.92l-33.5873-1.3631-8.6385-.3507a1.8676,1.8676,0,0,0-1.4647-1.5314V9.212A4.47,4.47,0,0,0,1163.1064,8.5292Zm294.3582,157.9675,12.4569-25.9518,8.8209-18.3767a3.3225,3.3225,0,0,0,3.3151-.5907l33.8948,32.968a4.455,4.455,0,0,0-1.0371,2.84c0,.1481.03.2881.0436.4325L1458.69,168.1138A2.9986,2.9986,0,0,0,1457.4646,166.4967ZM1161.3924,64.7a1.8734,1.8734,0,0,0,.8521-.7123L1204.19,80.34l46.1236,17.9819a2.3714,2.3714,0,0,0,.0515,1.322l-74.4759,35.01a1.5317,1.5317,0,0,0-1.1032-.5615l-11.7437-60.8442Zm14.7328,71.5236a1.5235,1.5235,0,0,0,.09-.8916l74.461-35.0028a2.6,2.6,0,0,0,.7155.7208l-30.8682,64.8238a3.2511,3.2511,0,0,0-3.5083.8638l-20.2507-15.1122Zm340.35,17.7823-33.8927-32.966a3.402,3.402,0,0,0-1.17-5.171L1499.4613,67.08a4.232,4.232,0,0,0,1.1186.1667,4.1821,4.1821,0,0,0,.46-.0464l17.13,85.8842A4.463,4.463,0,0,0,1516.4755,154.0054Zm-104.145-48.744-70.4107-4.04-44.4535-2.5506a2.5634,2.5634,0,0,0-4.1519-1.8l-51.3816-48.9053a3.0538,3.0538,0,0,0,.299-.4964l170.1945,57.2646A4.8207,4.8207,0,0,0,1412.3305,105.2614ZM1158.8711,63.4346a1.8646,1.8646,0,0,0,1.7834,1.4058l1.4473,7.4987,11.922,61.7683L1123.0561,66.5a2.3767,2.3767,0,0,0,.6457-1.3936Zm145.8374,152.4426a2.16,2.16,0,0,0-3.7178.2379l-41.9176-12.8544-3.7359-1.1457h78.4175a3.2313,3.2313,0,0,0,.1291.6049l-26.6319,12.01Zm177.3766-23.4561a3.3816,3.3816,0,0,0-4.2449-.1389l-6.67-7.2211-13.0416-14.1186a2.9777,2.9777,0,0,0,.7151-1.9248c0-.0566-.0137-.1094-.0167-.1651l56.2627-10.2938a4.4529,4.4529,0,0,0,.8332,1.6314l-22.3233,21.2636ZM1501.264,58.7672a4.0257,4.0257,0,0,0-3.3922.9237L1458.19,19.4475a2.8727,2.8727,0,0,0,.51-2.7232l60.1556-27.0131L1503.5907,49.634Zm-104.36-69.0619L1453,16.6508a2.9323,2.9323,0,0,0,1.301,3.5158l-26.242,59.8358-9.366,21.3556a4.7944,4.7944,0,0,0-1.5865-.2879c-.16,0-.3117.032-.468.0472l-.4944-2.79Zm-157.428,53.3721a3.0612,3.0612,0,0,0-2.5173,1.32L1164.8288,6.4993a4.4924,4.4924,0,0,0,.3556-1.7569c0-.0995-.023-.1926-.0293-.29l99.735-14.9283-24.4989,53.7085A3.0318,3.0318,0,0,0,1239.4756,43.0774Zm40.3108,195.4689,6.4323-5.824,15.371-13.917a2.1442,2.1442,0,0,0,2.89-.2084l13.4987,9.0295,31.4677,21.05a3.2035,3.2035,0,0,0-.25.6464l-69.1645-9.97A1.8187,1.8187,0,0,0,1279.7864,238.5463Zm71.2111,8.6439a3.2478,3.2478,0,0,0-1.1326.861l-44.9661-30.0783a2.0711,2.0711,0,0,0,.1129-1.4082l7.116-3.2091,22.062-9.9495a3.2112,3.2112,0,0,0,3.4007,1.5263l6.7413,21.2471Zm45.1163-257.6349,16.2832,91.9241,3.5005,19.7615a4.84,4.84,0,0,0-3.2462,2.7754L1281.8924,60.0206l-39.4112-13.26a2.9638,2.9638,0,0,0-.0213-1.301l86.1443-31.3419ZM1122.4517,66.9468l51.0509,67.7178a1.53,1.53,0,0,0-.3464.9625l-41.2116,10.303a2.8509,2.8509,0,0,0-2.5524-1.7981l-7.4549-76.9827A2.3556,2.3556,0,0,0,1122.4517,66.9468Zm9.4973,81.07,84.1964,20.5814a2.9169,2.9169,0,0,0,.2377,1.7512l-40.7438,23.5236a1.705,1.705,0,0,0-2.1516-.3178l-41.993-44.7741A2.8363,2.8363,0,0,0,1131.949,148.0172Zm342.0554,143.926,4.261-66.0628,1.7684-27.4124c.11-.005.2172-.0176.3242-.0326l37.5838,146.9879a4.46,4.46,0,0,0-1.2462.6684l-38.7451-42.8323a6.6725,6.6725,0,0,0-3.9461-11.3162ZM1517.6576-10.575l-59.2625,26.612a2.99,2.99,0,0,0-5.0775-.067l-55.2627-26.545Zm-172.97,18.0412L1242.1961,44.7555a3.0632,3.0632,0,0,0-1.1188-1.2157l24.6836-54.1148h128.5132ZM1260.4705-10.575l-95.417,14.282a4.4868,4.4868,0,0,0-8.6723-.261l-66.0237-14.021Zm-326.4932,0h152.5613L1120.0148,62.85a2.3975,2.3975,0,0,0-.7241.7691Zm242.0575,206.0631a1.5671,1.5671,0,0,0-.0219-.9625l26.4172-15.2525,14.3355-8.2767a3.3352,3.3352,0,0,0,1.0905.9425l-14.4275,35.7043a2.2955,2.2955,0,0,0-2.3793.881Zm29.182,14.7763a2.319,2.319,0,0,0,.0347-.3449l0-.0022,26.2738-4.3057,19.1834-3.1438a2.2443,2.2443,0,0,0,1.7469,1.4872v19.7756a2.2433,2.2433,0,0,0-1.6157,1.1821Zm49.7434,16.391a2.2168,2.2168,0,0,0-1.7536-2.9249V203.9551a2.2322,2.2322,0,0,0,.55-.1654l23.1365,34.3993c-.0321.0332-.0585.0715-.0881.107Zm63.2555,32.0232a3.1592,3.1592,0,0,0-5.5194-.685l-32.4947-17.8576,41.1507,5.9318,27.7325,3.9978c-.0007.03-.0088.0579-.0088.0881a3.2229,3.2229,0,0,0,.0455.4509Zm37.2451-7.6758a3.2126,3.2126,0,0,0-3.1293-4.1046,3.2618,3.2618,0,0,0-.6189.0624l-13.4065-42.258a3.2519,3.2519,0,0,0,1.0744-.79l128.1729,91.1031a6.6759,6.6759,0,0,0-.3969.7273Z"/><path class="cls-4" d="M-.6789-8.5048V154.2678a3.979,3.979,0,0,0-3.6589,3.9585,3.979,3.979,0,0,0,3.6589,3.9586V307.67c0,.0127.0111.021.0126.0333s-.0075.0239-.0048.0367c.0012.0051.0066.0075.0079.0126a.3175.3175,0,0,0,.0519.0959.3015.3015,0,0,0,.0349.0523c.0072.0072.0087.0179.0165.0246l.0033.0013c.0065.0055.0158.0054.0228.01A.3376.3376,0,0,0-.3895,308l.0025.0013c.0055.0007.01-.0042.0155-.0038l.0057-.0008c.0075,0,.0128.0072.02.0072H521.1154a.3336.3336,0,0,0,.1241-.6431l-166.1178-66.509a2.1009,2.1009,0,0,0-1.9373-2.5788l-6.6188-68.3421a2.5345,2.5345,0,1,0-2.048-4.5262l-37.272-39.741a1.5347,1.5347,0,0,0-2.4424-1.8539l-22.21-11.5746a2.0537,2.0537,0,0,0,.1132-.6467,2.0689,2.0689,0,0,0-3.9146-.9406L238.2888,97.6435a1.99,1.99,0,0,0-3.5491-1.5017L215.3473,85.8079a1.6209,1.6209,0,0,0-2.79-1.51L183.4942,68.3265a2.8339,2.8339,0,1,0-5.3858-.672L150.67,74.8225a2.8735,2.8735,0,0,0-5.2159-.3247l-99.16-39.7187a5.924,5.924,0,0,0-9.3365-6.5019L2.5636-9.7452a3.9674,3.9674,0,0,0,1.0827-2.7181,3.9919,3.9919,0,0,0-3.9921-3.992,3.992,3.992,0,0,0-3.992,3.992A3.9789,3.9789,0,0,0-.6789-8.5048Zm.667,170.69c.038-.0032.0756-.0072.1133-.0114L15.3091,238.419a3.7716,3.7716,0,0,0-.19,7.19L-.0119,305.01ZM.3142-8.5377,33.6775,121.945a3.0278,3.0278,0,0,0-1.3475,4.6963L14.4914,143.6335,2.2936,155.2521a3.9535,3.9535,0,0,0-2.3055-.9842V-8.5048C.0974-8.514.2074-8.52.3142-8.5377ZM279.5575,113.3558l-4.3381,10.7356-8.4713,20.9643a2.8324,2.8324,0,0,0-2.65.5538l-26.14-25.6182a1.9881,1.9881,0,0,0,.3587-1.13l40.3569-6.6136A2.0669,2.0669,0,0,0,279.5575,113.3558Zm63.9235,53.8375a1.3891,1.3891,0,0,0,.0014.554l-18.0218,4.5056-18.5788,4.6445a1.3535,1.3535,0,0,0-2.0637-.4146l-36.3092-27.0959a2.9306,2.9306,0,0,0,.222-.4657l43.9555,10.7446Zm39.673,140.0132-61.0741-12.97a3.9353,3.9353,0,0,0,.05-.4983,3.9789,3.9789,0,0,0-1.5474-3.1393l31.6037-48.2814a2.0106,2.0106,0,0,0,1.4307.1039l6.3533,13.9349ZM40.6794,38.8174a5.9137,5.9137,0,0,0,4.6285-2.23l113.7885,80.8788a2.8564,2.8564,0,0,0-.3477,1.1847l-46.8512,2.1957-74.1391,3.4746a3.0444,3.0444,0,0,0-2.48-2.5275L40.6316,38.815C40.6476,38.8151,40.6632,38.8174,40.6794,38.8174Zm193.8568,79.1381-40.78-12.5054a1.7118,1.7118,0,0,0-.2758-1.2575l19.3519-17.522a1.6078,1.6078,0,0,0,1.5683.1938l20.54,30.5391A1.9943,1.9943,0,0,0,234.5362,117.9555Zm-.1869,1.2286a1.9885,1.9885,0,0,0,3.1391,1.282l26.1418,25.62a2.939,2.939,0,0,0-.4164.7041l-98.75-27.4932c.0056-.0369.007-.0751.0112-.1124ZM351.63,241.95l-18.1335,27.7029-13.4729,20.5824a3.9538,3.9538,0,0,0-1.5615-.4642v-46.1A1.6574,1.6574,0,0,0,319.763,242.3l7.25-.3446,23.9615-1.139A2.114,2.114,0,0,0,351.63,241.95ZM56.0931,279.6586a2.6437,2.6437,0,0,0-1.6135.5562L19.252,244.4892a3.7333,3.7333,0,0,0,.6315-3.8765l66.9477-34.438a4.2921,4.2921,0,0,0,1.6278,1.5217L56.8458,279.78A2.64,2.64,0,0,0,56.0931,279.6586ZM37.787,124.9878l120.8559-5.6639L58.5557,146.876a2.6571,2.6571,0,0,0-4.01-1.1423l-17.498-18.9423A3.0253,3.0253,0,0,0,37.787,124.9878Zm225.2091,22.8943-91.4725,9.8056a1.9737,1.9737,0,0,0-1.8959-1.4409c-.0209,0-.04.0055-.061.0062l-7.0516-34.6683a2.8852,2.8852,0,0,0,1.7773-1.6435l98.7489,27.493A2.95,2.95,0,0,0,262.9961,147.8821Zm51.5061,141.6748L239.471,212.8944l25.01,18.4858,11.0979,8.2028a1.8153,1.8153,0,0,0-.191.8,1.8342,1.8342,0,0,0,1.8343,1.8342,1.8133,1.8133,0,0,0,.8282-.2062l8.3148,10.8453Zm-35.4717-49.4343a1.8226,1.8226,0,0,0-3.056-1.0768l-30.9776-22.8965-6.4678-4.7805,77.6188,30.2605Zm-42.0424-32.16a2.253,2.253,0,0,0-2.9353,1.8524H201.2312a2.28,2.28,0,0,0-.3728-.9681l63.179-58.7064a2.9648,2.9648,0,0,0,.3569.2682l-5.7536,12.0832ZM56.0931,150.5677a2.659,2.659,0,0,0,2.6341-2.3342H105.629a2.6466,2.6466,0,0,0,.2.7492L37.1668,190.5121a3.0549,3.0549,0,0,0-.8043-.7353L55.2538,150.42A2.6428,2.6428,0,0,0,56.0931,150.5677Zm38.251,51.5091,73.7685-42.5906a1.965,1.965,0,0,0,3.4819-1.1351l91.13-9.7687L94.4549,202.3036C94.4228,202.225,94.3806,202.153,94.3441,202.0768Zm67.2746-80.3359c.0832,0,.1615-.0176.243-.0246l1.8666,9.1777,5.1847,25.4911a1.9534,1.9534,0,0,0-1.1363,2.5249L94.02,201.4936a4.2945,4.2945,0,0,0-.54-.64l66.5549-79.5889A2.8732,2.8732,0,0,0,161.6187,121.7409ZM91.4542,199.7468a4.2309,4.2309,0,0,0-5.0859,2.9834l-48.591-10.08c.0091-.0961.029-.1889.029-.2873a3.03,3.03,0,0,0-.2906-1.2824l68.6654-41.5312a2.6639,2.6639,0,0,0,.9655.7663l-9.6345,30.3486Zm-56.7034-4.3284a3.0452,3.0452,0,0,0,2.8925-2.1147l23.9649,4.9714,24.6257,5.1087a3.7713,3.7713,0,0,0,.2806,2.2034L19.5734,240.0218a3.7944,3.7944,0,0,0-1.5806-1.3969l16.0207-43.3064A3.0316,3.0316,0,0,0,34.7508,195.4184Zm124.51-74.9044a2.9238,2.9238,0,0,0,.2639.32l-66.56,79.5948a4.2716,4.2716,0,0,0-.8739-.4843L102.4258,167.39l5.3559-16.871a2.6536,2.6536,0,0,0,2.9608-3.589l38.7-21.07Zm-48.8388,25.8305a2.6529,2.6529,0,0,0-4.7935,1.2221H58.7272c-.0017-.0148-.0024-.03-.0044-.0445l100.1983-27.5827Zm-15.77,56.5965L263.259,149.1122a2.9466,2.9466,0,0,0,.3218.5423L200.3984,208.364a2.2836,2.2836,0,0,0-3.6814,1.3209l-101.95-5.85A4.2837,4.2837,0,0,0,94.6526,202.941Zm106.5786,7.5407h32.8217a2.2907,2.2907,0,0,0,2.2636,1.9637,2.2432,2.2432,0,0,0,.2318-.0234l10.64,42.0279a2.7049,2.7049,0,0,0-.7334.4362l-45.6134-43.4153A2.2809,2.2809,0,0,0,201.2312,210.4817Zm46.9421,43.7774a2.673,2.673,0,0,0-.337.0341l-10.6385-42.0243a2.2859,2.2859,0,0,0,.466-.2677l77.4491,79.133a4,4,0,0,0-.3521.458l-64.0465-33.6516a2.7052,2.7052,0,0,0-2.541-3.6815Zm67.7982,36.1177-11.9789-15.6247L278.5809,241.606a1.8232,1.8232,0,0,0,.4273-.8166L308.826,242l7.669.3113a1.6579,1.6579,0,0,0,1.3,1.36v46.1A3.9682,3.9682,0,0,0,315.9715,290.3768ZM54.6493,150.138,43.59,173.1773l-7.831,16.3142a2.95,2.95,0,0,0-2.943.5244L2.7256,160.7479a3.9549,3.9549,0,0,0,.9207-2.5216c0-.1315-.0262-.2557-.0386-.384l49.954-9.14A2.6618,2.6618,0,0,0,54.6493,150.138ZM317.4931,240.51a1.6636,1.6636,0,0,0-.7564.6325l-37.2381-14.5176-40.9471-15.9639a2.1062,2.1062,0,0,0-.0457-1.1736l66.1173-31.081a1.36,1.36,0,0,0,.9795.4985l10.4256,54.0157ZM304.4138,177.014a1.3514,1.3514,0,0,0-.0794.7915L238.23,208.88a2.3088,2.3088,0,0,0-.6352-.64l27.4038-57.5487a2.8859,2.8859,0,0,0,3.1144-.7668l17.9781,13.416ZM2.2612,161.2274,32.35,190.4936a3.02,3.02,0,0,0,1.0385,4.5907L17.3658,238.3971a3.7576,3.7576,0,0,0-.993-.148,3.7426,3.7426,0,0,0-.4084.0412L.7566,162.045A3.9621,3.9621,0,0,0,2.2612,161.2274ZM94.718,204.5008l62.5085,3.5866,39.4644,2.2644a2.2758,2.2758,0,0,0,3.6859,1.5983l45.6151,43.4166a2.701,2.701,0,0,0-.2655.4407L94.633,204.97A4.3219,4.3219,0,0,0,94.718,204.5008Zm225.0136,37.1326a1.6558,1.6558,0,0,0-1.5833-1.2481l-1.2849-6.657-10.584-54.836,45.2477,60.02a2.11,2.11,0,0,0-.5734,1.2372ZM190.2614,106.3a1.9182,1.9182,0,0,0,3.3007-.2112L230.7753,117.5l3.3166,1.0171H164.4751a2.8653,2.8653,0,0,0-.1146-.537l23.643-10.6624ZM32.792,127.1231a3.002,3.002,0,0,0,3.7685.1233l5.9217,6.4107L54.06,146.1912a2.6436,2.6436,0,0,0-.6348,1.7088c0,.05.0121.0971.0148.1465L3.4917,157.1851a3.9528,3.9528,0,0,0-.74-1.4484L22.57,136.86ZM15.7655,245.777a3.5748,3.5748,0,0,0,3.0115-.82l35.2285,35.7268a2.5506,2.5506,0,0,0-.4523,2.4176L.1488,307.0828,13.7,253.8852Zm92.6481,61.3111L58.6128,283.1666a2.6031,2.6031,0,0,0-1.155-3.1212l23.2969-53.12L89.07,207.9662a4.2574,4.2574,0,0,0,1.4084.2556c.1423,0,.2768-.0284.4156-.0419l.4388,2.4772Zm139.76-47.3823a2.7177,2.7177,0,0,0,2.2348-1.1721l64.0343,33.6452a3.9884,3.9884,0,0,0-.3157,1.56c0,.0883.02.1709.0261.2578L225.611,307.2493,247.36,259.5686A2.6925,2.6925,0,0,0,248.1733,259.7058ZM212.3867,86.1745l-5.7106,5.1705L193.03,103.7a1.9035,1.9035,0,0,0-2.5655.185L178.481,95.8689,150.5449,77.1815a2.858,2.858,0,0,0,.2217-.5738l61.4021,8.851A1.6109,1.6109,0,0,0,212.3867,86.1745Zm-63.2191-7.6737a2.8843,2.8843,0,0,0,1.0054-.7644l39.92,26.7026a1.8368,1.8368,0,0,0-.1,1.25l-6.3174,2.8489-19.5861,8.8328a2.8509,2.8509,0,0,0-3.019-1.3549l-5.9847-18.8626Zm-40.053,228.72L94.6589,225.6138,91.5513,208.07a4.2967,4.2967,0,0,0,2.8818-2.4639l116.0838,39.0581,34.988,11.7722a2.6308,2.6308,0,0,0,.019,1.1549l-76.4763,27.8245Zm242.949-68.7059-45.3215-60.1177a1.3588,1.3588,0,0,0,.3075-.8545l36.5865-9.1467a2.5309,2.5309,0,0,0,2.2659,1.5963l6.6182,68.343A2.09,2.09,0,0,0,352.0636,238.5153Zm-8.4314-71.9717-74.747-18.2716a2.5906,2.5906,0,0,0-.2111-1.5547l36.1711-20.8835a1.5138,1.5138,0,0,0,1.91.2821l37.28,39.7492A2.5171,2.5171,0,0,0,343.6322,166.5436ZM39.9657,38.77,36.1829,97.419l-1.57,24.3358c-.0975.0045-.1929.0157-.2878.029L.9594-8.7076A3.9614,3.9614,0,0,0,2.0658-9.301L36.4625,28.7243A5.9235,5.9235,0,0,0,39.9657,38.77ZM1.2117,307.3368l52.6115-23.6252a2.6541,2.6541,0,0,0,4.5076.06l49.0607,23.5657ZM154.77,291.32l90.9886-33.1043a2.7187,2.7187,0,0,0,.9932,1.0793L224.838,307.3368h-114.09Zm74.7652,16.0164,84.7084-12.679a3.9832,3.9832,0,0,0,7.6988.2317l58.6139,12.4473Zm289.8508,0H383.9461L354.2269,242.152a2.1274,2.1274,0,0,0,.6429-.6828ZM304.4942,124.4a1.3894,1.3894,0,0,0,.0194.8545l-23.4525,13.5406-12.7266,7.3479a2.9638,2.9638,0,0,0-.9682-.8368l12.8084-31.6971a2.0386,2.0386,0,0,0,2.1124-.7821Zm-25.9069-13.118a2.0469,2.0469,0,0,0-.031.3061l0,.002-23.3251,3.8226-17.0305,2.7909a1.9922,1.9922,0,0,0-1.5508-1.32V99.3275a1.9922,1.9922,0,0,0,1.4345-1.0494ZM234.4265,96.731a1.9683,1.9683,0,0,0,1.5568,2.5966v17.5559a1.984,1.984,0,0,0-.4884.1469l-20.54-30.5387c.0286-.0294.0519-.0634.0783-.0949ZM178.27,68.3018a2.8046,2.8046,0,0,0,4.9.608L212.018,84.7633l-36.5324-5.2662-24.62-3.549c.0007-.0266.0079-.0514.0079-.0782a2.8736,2.8736,0,0,0-.04-.4Zm-33.065,6.8143a2.8575,2.8575,0,0,0-.112.7538,2.8774,2.8774,0,0,0,3.4394,2.8347L160.4345,116.22a2.887,2.887,0,0,0-.9538.7017L45.6927,36.043a5.9282,5.9282,0,0,0,.3524-.6457Z"/><g class="cls-5"><g class="cls-6"><polyline class="cls-7" points="1193.938 650.081 1029.47 662.696 1203.202 741.653 1283.05 797.886 1184.419 781.582 1203.202 741.653 1335.89 733.342 1259.66 645.474 1321.227 648.995 1403.924 630.448 1337.806 587.539 1328.751 538.69 1387.229 516.825 1427.357 433.329 1615.943 394.791 1523.976 370.479 1427.357 433.329 1560.712 502.895 1387.229 516.825 1348.912 465.95 1328.751 538.69 1400.661 531.113 1337.806 587.539 1477.102 527.357 1427.357 433.329 1446.115 333.852 1568.311 274.808 1713.72 160.29"/><polyline class="cls-8" points="1131.507 601.426 1033.791 604.807 1081.59 566.317 1131.507 601.426 1277.124 599.937 1337.806 587.539 1193.938 650.081 1203.357 559.056 1321.227 648.995 1292.462 651.567 1335.89 733.342 1321.227 648.995 1337.806 587.539 1259.66 645.474 1193.938 650.081 1131.507 601.426 1203.357 559.056 1337.806 587.539 1328.751 538.69 1381.931 492.363 1348.912 465.95 1427.357 433.329 1446.115 333.852 1704.2 292.757 1523.976 370.479 1387.229 516.825"/><polyline class="cls-9" points="1704.2 292.757 1568.311 274.808 1747.631 234.905 1446.115 333.852 1523.976 370.479 1472.448 273.44 1709.992 214.84"/><polyline class="cls-10" points="1568.311 274.808 1472.448 273.44 1615.943 394.791"/></g></g><g class="cls-5"><g class="cls-6"><polyline class="cls-11" points="325.248 650.073 489.717 662.688 315.985 741.645 236.137 797.878 334.767 781.574 315.985 741.645 183.296 733.334 259.526 645.466 197.959 648.987 115.263 630.44 181.38 587.531 190.435 538.682 131.958 516.817 91.829 433.322 -96.757 394.783 -4.789 370.472 91.829 433.322 -41.526 502.887 131.958 516.817 170.274 465.942 190.435 538.682 118.525 531.105 181.38 587.531 42.084 527.349 91.829 433.322 73.071 333.844 -49.125 274.801 -194.534 160.283"/><polyline class="cls-12" points="387.679 601.418 485.395 604.799 437.596 566.309 387.679 601.418 242.063 599.929 181.38 587.531 325.248 650.073 315.829 559.048 197.959 648.987 226.725 651.56 183.296 733.334 197.959 648.987 181.38 587.531 259.526 645.466 325.248 650.073 387.679 601.418 315.829 559.048 181.38 587.531 190.435 538.682 137.255 492.355 170.274 465.942 91.829 433.322 73.071 333.844 -185.014 292.749 -4.789 370.472 131.958 516.817"/><polyline class="cls-13" points="-185.014 292.749 -49.125 274.801 -228.445 234.897 73.071 333.844 -4.789 370.472 46.738 273.432 -190.806 214.832"/><polyline class="cls-14" points="-49.125 274.801 46.738 273.432 -96.757 394.783"/></g></g></g></g></svg>