<?xml version="1.0" encoding="utf-8"?>
<!-- Generator: Adobe Illustrator 25.2.3, SVG Export Plug-In . SVG Version: 6.00 Build 0)  -->
<svg version="1.1" id="Layer_1" xmlns="http://www.w3.org/2000/svg" xmlns:xlink="http://www.w3.org/1999/xlink" x="0px" y="0px"
	 viewBox="0 0 841.89 595.28" style="enable-background:new 0 0 841.89 595.28;" xml:space="preserve">
<style type="text/css">
	.st0{fill:#FF5828;}
</style>
<g>
	<path class="st0" d="M335.15,41.64c8.64,3.99,11.48,10.84,11.11,20.15c-0.52,13.1-0.13,26.24-0.13,39.85c2.42,0,4.37,0,6.32,0
		c46.75,0,93.5,0.07,140.24-0.08c6.44-0.02,11.48,2,15.99,6.57c18.48,18.72,37.08,37.34,55.76,55.85c4.44,4.4,6.45,9.32,6.36,15.59
		c-0.23,15.83,0.01,31.66-0.14,47.5c-0.03,3.28,0.9,5.47,3.44,7.64c31.65,27.02,63.19,54.17,94.79,81.25
		c4.92,4.21,7.71,9.24,6.25,15.8c-1.35,6.05-5.23,9.94-11.28,11.41c-1.75,0.43-3.63,0.44-5.44,0.44
		c-68.38,0.02-136.75,0.02-205.13,0.01c-8.43,0-13.88-3.29-16.32-9.75c-2.47-6.53-0.54-12.5,5.92-18.05
		c31.44-27.02,62.85-54.05,94.37-80.97c2.69-2.29,3.66-4.61,3.6-8.08c-0.21-11.48-0.08-22.96-0.08-34.79c-64.87,0-129.47,0-194.37,0
		c0,110.3,0,220.57,0,331.65c2.25,0,4.66,0,7.07,0c10.48,0,20.96-0.01,31.44,0c9.04,0.02,14.94,4.22,16.75,11.88
		c1.68,7.08-1.88,13.22-10.05,17.38c-0.25,0.13-0.39,0.49-0.58,0.74c-69.88,0-139.75,0-209.63,0c-0.19-0.25-0.33-0.61-0.59-0.74
		c-8.17-4.16-11.73-10.29-10.06-17.37c1.81-7.74,7.81-11.88,17.25-11.89c9.65-0.01,19.29,0,28.94,0c3.08,0,6.15,0,8.98,0
		c0-111.14,0-221.49,0-332c-14.88,0-29.34,0.07-43.81-0.03c-9.36-0.06-15.61-6.35-15.65-15.75c-0.08-19.49-0.28-38.99,0.19-58.47
		c0.1-3.92,2.07-8.68,4.81-11.4c2.61-2.58,7.32-4.05,11.17-4.17c14.4-0.47,28.83-0.19,43.7-0.19c0-13.63,0.39-26.76-0.13-39.86
		c-0.37-9.32,2.47-16.16,11.11-20.14C269.93,41.64,302.54,41.64,335.15,41.64z M519.55,161.46c-9.46-9.43-18.12-17.92-26.59-26.59
		c-2.25-2.31-4.52-3.31-7.8-3.3c-44.57,0.11-89.14,0.07-133.71,0.07c-1.62,0-3.23,0-5.02,0c0,10.21,0,19.92,0,29.82
		C403.88,161.46,461.02,161.46,519.55,161.46z M491.94,313.22c43,0,84.92,0,127.68,0c-21.74-18.65-42.77-36.71-63.86-54.81
		C534.41,276.74,513.5,294.71,491.94,313.22z M256.68,217.33c0,34.4,0,69.39,0,102.18c16.86-16.24,34.63-33.35,52.94-50.98
		C291.69,251.18,274.04,234.11,256.68,217.33z M315.94,307.3c-17.23,16.71-34.75,33.7-51.71,50.14
		c17.48,17.53,34.66,34.76,51.71,51.85C315.94,375.29,315.94,340.79,315.94,307.3z M256.48,493.53
		c16.54-16.59,33.03-33.14,48.82-48.98c-16.07-16.2-32.52-32.77-48.82-49.2C256.48,427.81,256.48,460.74,256.48,493.53z
		 M315.95,71.98c-20.05,0-39.72,0-59.27,0c0,10.06,0,19.77,0,29.4c19.94,0,39.49,0,59.27,0C315.95,91.54,315.95,81.94,315.95,71.98z
		 M315.94,131.92c-19.91,0-39.57,0-59.32,0c0,9.99,0,19.7,0,29.35c20,0,39.66,0,59.32,0C315.94,151.31,315.94,141.72,315.94,131.92z
		 M271.96,523.3c14.33,0,29.13,0,43.93,0c0-15.05,0-29.76,0-44.09C301.22,493.92,286.51,508.68,271.96,523.3z M196.61,161.28
		c10.1,0,19.79,0,29.33,0c0-10.07,0-19.78,0-29.37c-9.97,0-19.54,0-29.33,0C196.61,141.76,196.61,151.35,196.61,161.28z
		 M315.78,230.87c0-12.36,0-25.72,0-38.91c-13.42,0-26.45,0-40.16,0C289.48,205.4,302.83,218.33,315.78,230.87z"/>
	<path class="st0" d="M461.92,553.64c-8.64-3.99-11.18-10.85-11.12-20.14c0.31-47.31,0.14-94.62,0.14-141.93
		c0-12.34,5.62-17.93,18-17.93c57.87,0,115.74,0,173.61,0c12.38,0,18.01,5.59,18.01,17.93c0.01,47.31-0.16,94.62,0.14,141.93
		c0.06,9.29-2.5,16.14-11.12,20.14C587.04,553.64,524.48,553.64,461.92,553.64z M510.84,523.41c0-24.75-0.02-48.91,0.01-73.07
		c0.01-10.67,6.05-16.67,16.74-16.69c18.63-0.03,37.26-0.02,55.9,0c11.33,0.01,17.18,5.88,17.19,17.25
		c0.02,22.33,0.01,44.66,0.01,66.99c0,1.78,0,3.56,0,5.41c10.25,0,19.96,0,29.55,0c0-40.06,0-79.77,0-119.38
		c-49.91,0-99.42,0-148.99,0c0,40,0,79.72,0,119.49C491.16,523.41,500.74,523.41,510.84,523.41z M570.38,523.41
		c0-20.11,0-39.81,0-59.37c-10.05,0-19.75,0-29.33,0c0,19.99,0,39.57,0,59.37C550.88,523.41,560.46,523.41,570.38,523.41z"/>
</g>
</svg>
