<?xml version="1.0" encoding="utf-8"?>
<!-- Generator: Adobe Illustrator 25.2.3, SVG Export Plug-In . SVG Version: 6.00 Build 0)  -->
<svg version="1.1" id="Layer_1" xmlns="http://www.w3.org/2000/svg" xmlns:xlink="http://www.w3.org/1999/xlink" x="0px" y="0px"
	 viewBox="0 0 841.89 595.28" style="enable-background:new 0 0 841.89 595.28;" xml:space="preserve">
<style type="text/css">
	.st0{fill:#FFBB2C;}
</style>
<g>
	<path class="st0" d="M286.98,147.4c1.75,0.76,3.29,1.25,4.64,2.05c5.48,3.21,10.9,6.53,16.36,9.77c3.4,2.02,10.05-0.72,11.02-4.54
		c1.56-6.15,3.05-12.32,4.6-18.48c1.18-4.68,2.86-6.04,7.54-6.07c4.11-0.03,8.23,0.05,12.34-0.02c3.84-0.06,6.06,1.84,6.96,5.45
		c1.57,6.28,3.1,12.57,4.67,18.85c1.02,4.09,7.57,6.9,11.16,4.77c5.47-3.24,10.89-6.54,16.35-9.79c4-2.39,6.29-2.11,9.64,1.18
		c2.84,2.8,5.67,5.62,8.45,8.48c2.94,3.02,3.27,5.43,1.14,9.05c-3.22,5.48-6.54,10.89-9.8,16.35c-2.42,4.06,0.31,10.39,4.95,11.55
		c6.04,1.5,12.08,3,18.11,4.53c4.35,1.11,5.76,2.92,5.8,7.4c0.04,3.99,0.03,7.98,0,11.97c-0.04,4.66-1.42,6.37-6.08,7.55
		c-6.15,1.56-12.32,3.06-18.48,4.63c-3.82,0.97-6.55,7.6-4.53,11.01c3.24,5.47,6.55,10.89,9.79,16.35c2.42,4.09,2.16,6.34-1.09,9.65
		c-2.79,2.85-5.61,5.67-8.47,8.46c-3.15,3.07-5.51,3.32-9.36,1.03c-5.57-3.31-11.1-6.68-16.68-9.98c-3.15-1.86-9.9,0.95-10.8,4.48
		c-1.6,6.27-3.1,12.57-4.68,18.85c-1.11,4.39-2.92,5.82-7.35,5.87c-4.11,0.04-8.23,0.05-12.34,0c-4.22-0.05-6.1-1.52-7.15-5.64
		c-1.6-6.27-3.1-12.57-4.68-18.85c-0.98-3.88-7.56-6.66-10.98-4.63c-5.57,3.31-11.09,6.7-16.67,9.98c-3.83,2.25-6.15,1.92-9.34-1.21
		c-2.93-2.88-5.8-5.83-8.75-8.71c-2.73-2.67-2.98-5.58-1.05-8.78c3.21-5.34,6.41-10.68,9.62-16.02c2.73-4.56,0.21-10.79-4.87-12.05
		c-5.92-1.47-11.83-2.95-17.74-4.45c-4.56-1.16-5.93-2.92-5.96-7.64c-0.03-3.87-0.02-7.73,0-11.6c0.03-4.77,1.38-6.54,5.91-7.68
		c6.16-1.55,12.33-3.04,18.48-4.58c4.04-1.01,6.76-7.64,4.61-11.25c-3.18-5.35-6.42-10.68-9.6-16.03c-2.57-4.32-2.33-6.47,1.11-9.94
		c2.89-2.93,5.74-5.91,8.77-8.68C283.76,148.91,285.43,148.29,286.98,147.4z M337.02,249.87c19.79,0.03,35.96-16.08,35.99-35.85
		c0.03-19.8-16.06-35.95-35.85-35.98c-19.79-0.03-35.96,16.07-35.99,35.84C301.14,233.66,317.26,249.84,337.02,249.87z"/>
	<path class="st0" d="M504.76,293.95c15.39,8.99,30.99,18.06,46.14,26.88c-14.34,8.35-30.12,17.55-46.13,26.86
		c-15.36-9.01-30.87-18.05-46.05-26.89C473.85,312,489.41,302.94,504.76,293.95 M504.84,273.95c-2.43,0-4.85,0.77-7.33,2.23
		c-24.39,14.29-48.84,28.49-73.27,42.72c-0.91,0.53-1.77,1.16-2.9,1.9c0.78,0.55,1.24,0.95,1.76,1.25
		c26.58,15.49,53.18,30.93,79.7,46.52c0.74,0.43,1.37,0.6,1.94,0.6c1.15,0,2.06-0.68,3.09-1.27c25.73-14.96,51.45-29.95,77.16-44.94
		c1.04-0.61,2.02-1.33,3.24-2.14c-0.77-0.56-1.23-0.96-1.74-1.26c-24.97-14.54-49.95-29.05-74.9-43.63
		C509.29,274.59,507.06,273.95,504.84,273.95L504.84,273.95z"/>
	<path class="st0" d="M569.59,366.87c0,13.22,0,26.72,0.05,40.11c-13.31,8.15-26.76,16.42-39.88,24.5c0-13.79,0-27.58-0.01-41.38
		C543.06,382.36,556.45,374.54,569.59,366.87 M588.41,334.21c-0.69,0.22-1.06,0.27-1.36,0.45c-24.74,14.44-49.45,28.92-74.23,43.29
		c-2.09,1.21-2.08,2.76-2.08,4.66c0.02,26.31,0.01,52.61,0.02,78.92c0,1.08,0.09,2.15,0.16,3.63c1.17-0.63,2.04-1.04,2.85-1.54
		c22.6-13.89,45.18-27.83,67.81-41.68c4.8-2.94,7.09-6.95,7.07-12.64c-0.1-24.06-0.04-48.12-0.05-72.18
		C588.59,336.2,588.48,335.28,588.41,334.21L588.41,334.21z"/>
	<path class="st0" d="M439.94,366.81c1.95,1.14,3.9,2.28,5.84,3.42c11.14,6.52,22.61,13.24,34.03,19.86
		c-0.04,13.79-0.05,27.68-0.05,41.35c-13.12-8.07-26.56-16.34-39.87-24.48C439.94,393.59,439.95,380.4,439.94,366.81 M420.93,333.74
		c0,25.78,0.05,50.71-0.04,75.64c-0.02,5.7,2.33,9.65,7.14,12.59c22.54,13.77,45.01,27.64,67.51,41.47
		c0.91,0.56,1.89,1.01,3.24,1.73c0-1.56,0-2.66,0-3.75c0-26.18-0.04-52.37,0.06-78.55c0.01-2.72-0.81-4.2-3.18-5.57
		c-18.34-10.58-36.59-21.32-54.87-32.01C434.38,341.55,427.95,337.82,420.93,333.74L420.93,333.74z"/>
	<path class="st0" d="M408.78,369.52c0,8.35,0,16.03,0,24.09c-1.25,0-2.34,0-3.42,0c-22.19,0-44.38,0.01-66.57,0
		c-8.91-0.01-13.65-4.71-13.66-13.56c-0.01-22.19,0-44.38,0-66.57c0-1.09,0-2.19,0-3.49c7.99,0,15.67,0,23.75,0
		c0,19.66,0,39.4,0,59.54C369.01,369.52,388.75,369.52,408.78,369.52z"/>
	<path class="st0" d="M516.74,261.7c-8.19,0-15.87,0-23.95,0c0-5.98,0-11.8,0-17.62c0-5.85,0-11.71,0-17.96
		c-19.87,0-39.62,0-59.62,0c0-8.16,0-15.93,0-23.97c1.21-0.06,2.41-0.17,3.62-0.17c22.06-0.01,44.13-0.01,66.19,0
		c9.13,0,13.75,4.65,13.76,13.83C516.75,231,516.74,246.19,516.74,261.7z"/>
	<path class="st0" d="M361.03,213.9c0.02,13.23-10.76,24.01-23.99,23.99c-13.21-0.02-23.95-10.85-23.89-24.09
		c0.06-13.06,10.74-23.74,23.8-23.8C350.2,189.95,361.01,200.68,361.03,213.9z"/>
</g>
</svg>
